#N canvas -149 50 1920 997 16;
#X obj 16 37 tgl 15 0 empty empty empty 17 7 0 10 #fcfcfc #000000 #000000 0 1;
#X msg 16 60 \; pd dsp \$1;
#N canvas 148 87 1657 865 drum_machine 0;
#N canvas 0 50 450 250 (subpatch) 0;
#X array \$0-steps 16 float 3;
#A 0 4 2 4 2 5 2 4 5 2 5 4 5 5 4 2 5;
#X coords 0 6 16 0 200 140 1 0 0;
#X restore 798 31 graph;
#X text 801 202 0=k \, 1=s \, 2=h \, 3=ks \, 4=kh \, 5=sh \, 6=ksh;
#X msg 837 304 0 2 3 4 5 6 0 1 2 3 4 5 6 0 1 2;

#X obj 41 171 array get \$0-steps;
#X msg 128 137 1;
#X floatatom 41 218 5 0 0 0 - - - 0;
#X obj 42 244 + 0.5;
#X obj 42 273 int;
#X floatatom 42 302 5 0 0 0 - - - 0;
#X obj 41 337 sel 0 1 2 3 4 5 6;
#N canvas 374 391 1107 650 kick 0;
#X obj 17 9 inlet;
#X obj 16 43 bng 15 250 50 0 empty empty empty 17 7 0 10 #fcfcfc #000000 #000000;
#X obj 120 63 f;
#X obj 14 229 osc~;
#X obj 14 258 *~;
#X obj 14 287 outlet~;
#X obj 122 13 inlet;
#X obj 320 208 line~;
#X msg 322 167 \$1 1;
#X obj 399 131 del 1;
#X msg 396 167 0 100;
#X obj 20 187 line~;
#X msg 22 146 150;
#X msg 96 146 50 70;
#X connect 0 0 1 0;
#X connect 1 0 2 0;
#X connect 1 0 12 0;
#X connect 1 0 13 0;
#X connect 2 0 8 0;
#X connect 2 0 9 0;
#X connect 3 0 4 0;
#X connect 4 0 5 0;
#X connect 6 0 2 1;
#X connect 7 0 4 1;
#X connect 8 0 7 0;
#X connect 9 0 10 0;
#X connect 10 0 7 0;
#X connect 11 0 3 0;
#X connect 12 0 11 0;
#X connect 13 0 11 0;
#X restore 42 392 pd kick;
#N canvas 562 244 666 436 snare 0;
#X obj 193 10 inlet;
#X obj 258 10 inlet;
#X obj 24 49 noise~;
#X obj 23 83 lop~ 3000;
#X obj 23 117 hip~ 1000;
#X obj 76 154 osc~ 180;
#X obj 77 190 *~ 0.5;
#X obj 77 228 *~;
#X obj 191 60 f;
#X obj 191 163 *~;
#X obj 77 258 outlet~;
#X obj 320 208 line~;
#X msg 322 167 \$1 1;
#X obj 399 131 del 1;
#X msg 396 167 0 150;
#X connect 0 0 8 0;
#X connect 1 0 8 1;
#X connect 2 0 3 0;
#X connect 3 0 4 0;
#X connect 4 0 7 0;
#X connect 5 0 6 0;
#X connect 6 0 7 0;
#X connect 7 0 10 0;
#X connect 8 0 12 0;
#X connect 8 0 13 0;
#X connect 9 0 7 1;
#X connect 11 0 9 0;
#X connect 11 0 9 1;
#X connect 12 0 11 0;
#X connect 13 0 14 0;
#X connect 14 0 11 0;
#X restore 141 392 pd snare;
#N canvas 669 490 450 497 hihat 0;
#X obj 193 10 inlet;
#X obj 258 10 inlet;
#X obj 15 66 noise~;
#X obj 42 170 *~;
#X obj 191 60 f;
#X obj 42 200 outlet~;
#X obj 14 100 lop~ 20000;
#X obj 14 134 hip~ 10000;
#X obj 192 39 bng 15 250 50 0 empty empty empty 17 7 0 10 #fcfcfc #000000 #000000;
#X obj 284 94 t f b;
#X obj 317 134 random 10;
#X obj 317 163 / 20;
#X obj 317 192 + 0.7;
#X obj 247 201 *;
#X obj 80 364 line~;
#X obj 159 287 del 1;
#X msg 156 323 0 40;
#X msg 96 318 \$1;
#X connect 0 0 8 0;
#X connect 1 0 4 1;
#X connect 2 0 6 0;
#X connect 3 0 5 0;
#X connect 4 0 9 0;
#X connect 6 0 7 0;
#X connect 7 0 3 0;
#X connect 8 0 4 0;
#X connect 9 0 13 0;
#X connect 9 1 10 0;
#X connect 10 0 11 0;
#X connect 11 0 12 0;
#X connect 12 0 13 1;
#X connect 13 0 15 0;
#X connect 13 0 17 0;
#X connect 14 0 3 1;
#X connect 15 0 16 0;
#X connect 16 0 14 0;
#X connect 17 0 14 0;
#X restore 253 393 pd hihat;
#X floatatom 127 305 5 0 0 0 - - - 0;
#X floatatom 234 307 5 0 0 0 - - - 0;
#X floatatom 328 308 5 0 0 0 - - - 0;
#X obj 116 459 +~;
#X msg 765 409 4 10 4 10 5 10 2 1 2 1 4 0 5 10 2 1;
#X msg 761 443 4 0 2 10 5 10 2 0 2 10 4 0 5 10 6 10;
#X msg 757 479 4 10 2 10 5 10 2 2 2 10 4 10 5 0 2 2;
#X msg 749 512 4 2 4 2 5 2 4 5 2 5 4 5 5 4 2 5;
#X msg 747 552 0 2 2 10 3 10 2 2 0 2 2 10 3 10 2 10;
#X msg 741 621 4 2 2 2 5 2 2 24 2 2 2 5 2 4 2;

#X msg 739 588 0 1 2 2 1 0 2 1 10 10 4 0 1 2 2 2 0 10 2 10;
#N canvas 1577 294 450 300 counter 0;
#X obj 23 17 inlet;
#X obj 22 49 tgl 15 0 empty empty empty 17 7 0 10 #fcfcfc #000000 #000000 0 1;
#X obj 22 69 t f b;
#X obj 22 109 metro 0.25 120 permin;
#X obj 22 184 f;
#X obj 22 213 % 16;
#X obj 22 242 outlet;
#X msg 102 73 tempo \$1 permin;
#X obj 61 184 + 1;
#X msg 49 142 0;
#X obj 102 43 r BPM;
#X connect 0 0 1 0;
#X connect 1 0 2 0;
#X connect 2 0 3 0;
#X connect 2 1 9 0;
#X connect 3 0 4 0;
#X connect 4 0 5 0;
#X connect 4 0 8 0;
#X connect 5 0 6 0;
#X connect 7 0 3 0;
#X connect 8 0 4 1;
#X connect 9 0 4 1;
#X connect 10 0 7 0;
#X restore 39 41 pd counter;
#X obj 39 21 tgl 15 0 empty empty empty 17 7 0 10 #fcfcfc #000000 #000000 0 1;
#X obj 39 112 hradio 15 1 0 16 empty empty empty 0 -8 0 10 #fcfcfc #000000 #000000 0;
#X obj 39 -10 inlet;

#X obj 39 534 bng 15 250 50 0 empty empty empty 17 7 0 10 #fcfcfc #000000 #000000;
#X obj 189 222 loadbang;
#X msg 131 269 0.7;
#X msg 232 272 0.6;
#X msg 326 267 0.5;
#X obj 41 566 s kicks;
#X obj 237 150 bng 15 250 50 0 empty empty empty 17 7 0 10 #fcfcfc #000000 #000000;
#X obj 259 174 random 10;
#X msg 829 262 4 10 10 10 4 5 10 10 10 4 10 4 0 5 10;
#X obj 389 166 random 7;
#X obj 401 220 sel 0 1 2 3 4 5 6;
#X floatatom 382 95 5 0 0 0 - - - 0;
#X obj 382 123 sel 15;
#X connect 2 0 3 0;
#X connect 4 0 6 0;
#X connect 5 0 4 1;
#X connect 6 0 7 0;
#X connect 7 0 8 0;
#X connect 8 0 9 0;
#X connect 9 0 10 0;
#X connect 10 0 11 0;
#X connect 10 0 31 0;
#X connect 10 1 12 0;
#X connect 10 2 13 0;
#X connect 10 3 11 0;
#X connect 10 3 12 0;
#X connect 10 3 31 0;
#X connect 10 4 11 0;
#X connect 10 4 13 0;
#X connect 10 4 31 0;
#X connect 10 5 12 0;
#X connect 10 5 13 0;
#X connect 10 6 11 0;
#X connect 10 6 12 0;
#X connect 10 6 13 0;
#X connect 10 6 31 0;
#X connect 11 0 17 0;
#X connect 12 0 17 0;
#X connect 13 0 17 0;
#X connect 14 0 11 1;
#X connect 15 0 12 1;
#X connect 16 0 13 1;
#X connect 17 0 30 0;
#X connect 18 0 24 0;
#X connect 19 0 24 0;
#X connect 20 0 24 0;
#X connect 21 0 24 0;
#X connect 22 0 24 0;
#X connect 23 0 24 0;
#X connect 25 0 24 0;
#X connect 26 0 28 0;
#X connect 27 0 26 0;
#X connect 28 0 4 0;
#X connect 28 0 37 0;
#X connect 28 0 42 0;
#X connect 29 0 27 0;
#X connect 31 0 36 0;
#X connect 32 0 33 0;
#X connect 32 0 34 0;
#X connect 32 0 35 0;
#X connect 33 0 14 0;
#X connect 34 0 15 0;
#X connect 35 0 16 0;
#X connect 37 0 38 0;
#X connect 39 0 3 0;
#X connect 40 0 41 0;
#X connect 41 0 18 0;
#X connect 41 1 19 0;
#X connect 41 2 20 0;
#X connect 41 3 21 0;
#X connect 41 4 22 0;
#X connect 41 5 25 0;
#X connect 41 6 23 0;
#X connect 42 0 43 0;
#X connect 43 0 40 0;
#X restore 20 378 pd drum_machine;
#X floatatom 323 380 5 0 0 2 BPM - - 36;
#X obj 324 439 s BPM;
#N canvas 1577 294 450 300 counter 0;
#X obj 23 17 inlet;
#X obj 22 49 tgl 15 0 empty empty empty 17 7 0 10 #fcfcfc #000000 #000000 0 1;
#X obj 22 69 t f b;
#X obj 22 109 metro 0.25 120 permin;
#X obj 22 184 f;
#X obj 22 213 % 16;
#X obj 22 242 outlet;
#X msg 102 73 tempo \$1 permin;
#X obj 61 184 + 1;
#X msg 49 142 0;
#X obj 102 43 r BPM;
#X connect 0 0 1 0;
#X connect 1 0 2 0;
#X connect 2 0 3 0;
#X connect 2 1 9 0;
#X connect 3 0 4 0;
#X connect 4 0 5 0;
#X connect 4 0 8 0;
#X connect 5 0 6 0;
#X connect 7 0 3 0;
#X connect 8 0 4 1;
#X connect 9 0 4 1;
#X connect 10 0 7 0;
#X restore 336 200 pd counter;
#X obj 335 232 hradio 15 1 0 16 empty empty empty 0 -8 0 10 #fcfcfc #000000 #000000 0;
#N canvas 346 305 1146 518 random_notes_euclidean 0;
#N canvas 643 314 992 1029 euclidean_rhythms 0;
#X obj 93 248 + 0;
#X obj 93 279 *;
#X floatatom 230 331 5 0 0 1 Notes - - 0;
#X obj 93 309 % 16;
#X obj 92 340 <;
#X obj 92 369 sel 1;
#X obj 92 398 bng 15 250 50 0 empty empty empty 17 7 0 10 #fcfcfc #000000 #000000;
#X obj 139 400 bng 15 250 50 0 empty empty empty 17 7 0 10 #fcfcfc #000000 #000000;
#X obj 93 197 t f f;
#X obj 92 422 f;
#X floatatom 92 457 5 0 0 0 - - - 0;
#X msg 409 144 16;
#X floatatom 409 175 5 0 0 1 Steps - - 0;
#X obj 96 12 inlet;
#X obj 230 15 inlet;
#X obj 92 497 outlet;
#X obj 285 260 loadbang;
#X msg 285 288 8;
#X obj 409 114 loadbang;
#N canvas 1577 294 450 300 counter 0;
#X obj 23 17 inlet;
#X obj 22 49 tgl 15 0 empty empty empty 17 7 0 10 #fcfcfc #000000 #000000 0 1;
#X obj 22 69 t f b;
#X obj 22 109 metro 0.25 120 permin;
#X obj 22 184 f;
#X obj 22 213 % 16;
#X obj 22 242 outlet;
#X msg 102 73 tempo \$1 permin;
#X obj 61 184 + 1;
#X msg 49 142 0;
#X obj 102 43 r BPM;
#X connect 0 0 1 0;
#X connect 1 0 2 0;
#X connect 2 0 3 0;
#X connect 2 1 9 0;
#X connect 3 0 4 0;
#X connect 4 0 5 0;
#X connect 4 0 8 0;
#X connect 5 0 6 0;
#X connect 7 0 3 0;
#X connect 8 0 4 1;
#X connect 9 0 4 1;
#X connect 10 0 7 0;
#X restore 95 70 pd counter;
#X obj 95 50 tgl 15 0 empty empty empty 17 7 0 10 #fcfcfc #000000 #000000 0 1;
#X obj 95 141 hradio 15 1 0 16 empty empty empty 0 -8 0 10 #fcfcfc #000000 #000000 0;
#X connect 0 0 1 0;
#X connect 1 0 3 0;
#X connect 2 0 1 1;
#X connect 2 0 4 1;
#X connect 3 0 4 0;
#X connect 4 0 5 0;
#X connect 5 0 6 0;
#X connect 5 1 7 0;
#X connect 6 0 9 0;
#X connect 8 0 0 0;
#X connect 8 1 9 1;
#X connect 9 0 10 0;
#X connect 10 0 15 0;
#X connect 11 0 12 0;
#X connect 13 0 20 0;
#X connect 14 0 2 0;
#X connect 16 0 17 0;
#X connect 17 0 2 0;
#X connect 18 0 11 0;
#X connect 19 0 21 0;
#X connect 20 0 19 0;
#X connect 21 0 8 0;
#X restore 16 103 pd euclidean_rhythms;
#X obj 16 66 tgl 15 0 empty empty empty 17 7 0 10 #fcfcfc #000000 #000000 0 1;
#X floatatom 212 71 5 0 0 0 - - - 0;
#X floatatom 19 155 5 0 0 0 - - - 0;
#X obj 19 225 bng 15 250 50 0 empty empty empty 17 7 0 10 #fcfcfc #000000 #000000;
#X obj 18 188 sel 0;
#X obj 212 9 random 16;
#X obj 211 42 + 1;
#X obj 101 153 t b f;
#X floatatom 149 223 5 0 0 0 - - - 0;
#N canvas 521 366 980 421 random_note 0;
#X msg 45 103 60;
#X floatatom 45 159 5 0 0 0 - - - 0;
#X obj 45 308 mtof;
#X obj 45 252 +;
#X floatatom 442 110 5 0 0 0 - - - 0;
#X obj 45 67 bng 15 250 50 0 empty empty empty 17 7 0 10 #fcfcfc #000000 #000000;
#X obj 442 81 random 7;
#X obj 442 137 sel 0 1 2 3 4 5 6;
#X msg 442 188 0;
#X msg 489 189 2;
#X msg 535 189 4;
#X msg 582 189 5;
#X msg 629 189 7;
#X msg 675 189 9;
#X msg 722 189 11;
#X floatatom 442 248 5 0 0 0 - - - 0;
#X floatatom 45 339 5 0 0 0 - - - 0;
#X obj 45 26 inlet;
#X obj 45 371 outlet;
#X floatatom 126 139 5 0 0 0 - - - 0;
#X obj 124 101 random 3;
#X obj 124 185 sel 0 1;
#X obj 47 210 +;
#X msg 123 217 -12;
#X msg 170 218 12;
#X floatatom 101 281 5 0 0 0 - - - 0;
#X connect 0 0 1 0;
#X connect 1 0 22 0;
#X connect 2 0 16 0;
#X connect 3 0 2 0;
#X connect 3 0 25 0;
#X connect 4 0 7 0;
#X connect 5 0 6 0;
#X connect 5 0 0 0;
#X connect 5 0 20 0;
#X connect 6 0 4 0;
#X connect 7 0 8 0;
#X connect 7 1 9 0;
#X connect 7 2 10 0;
#X connect 7 3 11 0;
#X connect 7 4 12 0;
#X connect 7 5 13 0;
#X connect 7 6 14 0;
#X connect 8 0 15 0;
#X connect 9 0 15 0;
#X connect 10 0 15 0;
#X connect 11 0 15 0;
#X connect 12 0 15 0;
#X connect 13 0 15 0;
#X connect 14 0 15 0;
#X connect 15 0 3 1;
#X connect 16 0 18 0;
#X connect 17 0 5 0;
#X connect 19 0 21 0;
#X connect 20 0 19 0;
#X connect 21 0 23 0;
#X connect 21 1 24 0;
#X connect 22 0 3 0;
#X connect 23 0 22 1;
#X connect 24 0 22 1;
#X restore 148 189 pd random_note;
#X obj 15 11 inlet;
#X obj 149 261 outlet;
#X connect 0 0 3 0;
#X connect 0 0 8 0;
#X connect 1 0 0 0;
#X connect 2 0 0 1;
#X connect 3 0 5 0;
#X connect 4 0 6 0;
#X connect 5 0 4 0;
#X connect 6 0 7 0;
#X connect 7 0 2 0;
#X connect 8 1 10 0;
#X connect 9 0 12 0;
#X connect 10 0 9 0;
#X connect 11 0 1 0;
#X restore 20 224 pd random_notes_euclidean;
#N canvas 647 185 881 988 clave 0;
#X obj 65 19 inlet;
#X floatatom 66 163 5 0 0 0 - - - 0;
#X obj 66 191 osc~;
#X obj 66 220 *~;
#X obj 137 236 pow~ 4;
#X obj 67 298 outlet~;
#X obj 65 53 ftom;
#X obj 66 89 + 12;
#X obj 70 127 mtof;
#X msg 144 169 0.7 5;
#X msg 218 169 0 200;
#X obj 221 133 del 10;
#X obj 148 136 bng 24 250 50 0 empty empty empty 0 -12 0 16 #fcfcfc #000000 #000000;
#X obj 144 202 line~;
#X connect 0 0 6 0;
#X connect 1 0 2 0;
#X connect 1 0 12 0;
#X connect 2 0 3 0;
#X connect 3 0 5 0;
#X connect 4 0 3 1;
#X connect 6 0 7 0;
#X connect 7 0 8 0;
#X connect 8 0 1 0;
#X connect 9 0 13 0;
#X connect 10 0 13 0;
#X connect 11 0 10 0;
#X connect 12 0 9 0;
#X connect 12 0 11 0;
#X connect 13 0 4 0;
#X restore 16 261 pd clave;
#X obj 564 379 tgl 50 0 empty empty empty 17 7 0 10 #fcfcfc #000000 #000000 0 1;
#X obj 695 384 tgl 50 0 empty empty empty 17 7 0 10 #fcfcfc #000000 #000000 0 1;
#X obj 824 388 tgl 50 0 empty empty empty 17 7 0 10 #fcfcfc #000000 #000000 0 1;
#X obj 952 380 tgl 50 0 empty empty empty 17 7 0 10 #fcfcfc #000000 #000000 0 1;
#X obj 1149 485 tgl 50 0 empty empty empty 17 7 0 10 #fcfcfc #000000 #000000 0 1;
#X obj 698 528 tgl 50 0 empty empty empty 17 7 0 10 #fcfcfc #000000 #000000 0 1;
#X obj 830 537 tgl 50 0 empty empty empty 17 7 0 10 #fcfcfc #000000 #000000 0 1;
#X obj 956 539 tgl 50 0 empty empty empty 17 7 0 10 #fcfcfc #000000 #000000 0 1;
#X obj 230 381 loadbang;
#X obj 329 511 tgl 50 0 empty empty Start\ All 0 -10 0 20 #fcfcfc #000000 #000000 0 1;
#X obj 325 570 s start;
#X obj 336 169 r start;
#X obj 19 194 r start;
#X obj 18 353 r start;
#X obj 505 1108 catch~ ch1;
#X obj 429 1153 vu 15 120 vu1 empty -1 -8 0 10 #404040 #000000 1 0;
#X obj 505 1248 s vu1;
#X obj 478 1151 vsl 15 120 0 1 0 0 empty empty empty 0 -9 0 10 #fcfcfc #000000 #000000 0 1;
#X obj 506 1159 *~;
#X obj 506 1189 env~;
#X obj 506 1220 - 100;
#X obj 785 843 dac~;
#X obj 703 692 *~;
#X obj 704 661 catch~ masterL;
#X obj 869 697 *~;
#X obj 870 661 catch~ masterR;
#X obj 703 755 +~;
#X obj 703 785 env~;
#X obj 703 816 - 100;
#X obj 642 745 vu 15 120 vuM empty -1 -8 0 10 #404040 #000000 1 0;
#X obj 619 745 vsl 15 120 0 1 0 0 empty empty empty 0 -9 0 10 #fcfcfc #000000 #000000 0 1;
#X obj 702 844 s vuM;

#X obj 429 1106 line~;
#X floatatom 560 1056 5 0 0 0 - - - 24;
#X obj 429 1026 r mute1;
#X obj 565 437 s mute1;
#X msg 429 1079 \$1 500;
#X obj 515 1026 loadbang;
#X obj 429 1052 * 1;
#X msg 515 1058 1;
#X obj 775 1153 vu 15 120 vu2 empty -1 -8 0 10 #404040 #000000 1 0;
#X obj 824 1151 vsl 15 120 0 1 0 0 empty empty empty 0 -9 0 10 #fcfcfc #000000 #000000 0 1;
#X obj 852 1159 *~;
#X obj 852 1189 env~;
#X obj 852 1220 - 100;

#X obj 775 1106 line~;
#X floatatom 906 1056 5 0 0 0 - - - 24;
#X msg 775 1079 \$1 500;
#X obj 861 1026 loadbang;
#X obj 775 1052 * 1;
#X obj 775 1026 r mute2;
#X obj 851 1108 catch~ ch2;
#X obj 851 1248 s vu2;
#X obj 697 440 s mute2;
#X obj 824 447 s mute3;
#N canvas 113 473 784 496 effects 0;
#X obj 53 41 inlet~;
#X obj 608 37 inlet~;
#X obj 54 273 outlet~;
#X obj 534 280 outlet~;
#X obj 185 255 lop~ 100;
#X obj 388 250 lop~ 100;
#X obj 280 200 r lop_global;
#X obj 226 59 sel 1;
#X obj 180 216 *~;
#X msg 265 94 0;
#X msg 209 95 1;
#X obj 466 207 *~;
#X obj 68 163 *~;
#X msg 154 93 0;
#X msg 319 92 1;
#X obj 630 187 *~;
#X obj 225 24 r lop_on;
#X obj 383 35 loadbang;
#X connect 0 0 12 0;
#X connect 0 0 8 0;
#X connect 1 0 15 0;
#X connect 1 0 11 0;
#X connect 4 0 2 0;
#X connect 5 0 3 0;
#X connect 6 0 5 1;
#X connect 6 0 4 1;
#X connect 7 0 10 0;
#X connect 7 0 13 0;
#X connect 7 1 9 0;
#X connect 7 1 14 0;
#X connect 8 0 4 0;
#X connect 9 0 8 1;
#X connect 9 0 11 1;
#X connect 10 0 8 1;
#X connect 10 0 11 1;
#X connect 11 0 5 0;
#X connect 12 0 2 0;
#X connect 13 0 12 1;
#X connect 13 0 15 1;
#X connect 14 0 12 1;
#X connect 14 0 15 1;
#X connect 15 0 3 0;
#X connect 16 0 7 0;
#X restore 896 774 pd effects;

#N canvas 878 492 673 470 synth1 0;
#X obj 58 46 inlet;
#X obj 56 180 osc~;
#X obj 178 146 bng 15 250 50 0 empty empty empty 17 7 0 10 #fcfcfc #000000 #000000;
#X obj 247 169 del 10;
#X obj 245 206 pack 0 500;
#X floatatom 362 150 5 0 0 0 - - - 0;
#X obj 244 245 line~;
#X msg 176 174 1 5;
#X obj 246 283 *~;
#X obj 243 319 *~;
#X obj 58 319 *~;
#X obj 60 396 outlet~;
#X obj 362 89 loadbang;
#X msg 361 118 2000;
#X connect 0 0 1 0;
#X connect 0 0 2 0;
#X connect 1 0 10 0;
#X connect 2 0 7 0;
#X connect 2 0 3 0;
#X connect 3 0 4 0;
#X connect 4 0 6 0;
#X connect 5 0 4 1;
#X connect 6 0 8 0;
#X connect 6 0 8 1;
#X connect 7 0 6 0;
#X connect 8 0 9 0;
#X connect 8 0 9 1;
#X connect 9 0 10 1;
#X connect 10 0 11 0;
#X connect 12 0 13 0;
#X connect 13 0 5 0;
#X restore 67 518 pd synth1;
#N canvas 145 330 948 476 synth1 0;
#X obj 58 46 inlet;
#X obj 56 180 osc~;
#X obj 178 146 bng 15 250 50 0 empty empty empty 17 7 0 10 #fcfcfc #000000 #000000;
#X obj 247 169 del 10;
#X obj 245 206 pack 0 500;
#X floatatom 362 150 5 0 0 0 - - - 0;
#X obj 244 245 line~;
#X msg 176 174 1 5;
#X obj 246 283 *~;
#X obj 243 319 *~;
#X obj 58 319 *~;
#X obj 60 396 outlet~;
#X obj 362 89 loadbang;
#X msg 361 118 2000;
#X connect 0 0 1 0;
#X connect 0 0 2 0;
#X connect 1 0 10 0;
#X connect 2 0 7 0;
#X connect 2 0 3 0;
#X connect 3 0 4 0;
#X connect 4 0 6 0;
#X connect 5 0 4 1;
#X connect 6 0 8 0;
#X connect 6 0 8 1;
#X connect 7 0 6 0;
#X connect 8 0 9 0;
#X connect 8 0 9 1;
#X connect 9 0 10 1;
#X connect 10 0 11 0;
#X connect 12 0 13 0;
#X connect 13 0 5 0;
#X restore 159 262 pd synth1;
#X obj 1076 375 vsl 50 200 100 5000 0 0 lop_global empty LP 5 -15 0 30 #fcfcfc #000000 #000000 0 1;
#X floatatom 1076 608 5 0 0 0 - - - 0;
#N canvas 469 548 904 650 bass 0;
#X obj 58 46 inlet;
#X obj 57 251 osc~;
#X obj 178 146 bng 15 250 50 0 empty empty empty 17 7 0 10 #fcfcfc #000000 #000000;
#X obj 247 169 del 10;
#X obj 245 206 pack 0 500;
#X floatatom 362 150 5 0 0 0 - - - 0;
#X obj 244 245 line~;
#X msg 176 174 1 5;
#X obj 246 283 *~;
#X obj 243 319 *~;
#X obj 58 319 *~;
#X obj 60 396 outlet~;
#X obj 362 89 loadbang;
#X msg 361 118 2000;
#X obj 56 126 ftom;
#X obj 55 206 mtof;
#X obj 56 167 - 12;
#X obj 59 287 hip~ 200;
#X floatatom 158 254 5 0 0 0 - - - 0;
#X connect 0 0 2 0;
#X connect 0 0 14 0;
#X connect 1 0 17 0;
#X connect 2 0 7 0;
#X connect 2 0 3 0;
#X connect 3 0 4 0;
#X connect 4 0 6 0;
#X connect 5 0 4 1;
#X connect 6 0 8 0;
#X connect 6 0 8 1;
#X connect 7 0 6 0;
#X connect 8 0 9 0;
#X connect 8 0 9 1;
#X connect 9 0 10 1;
#X connect 10 0 11 0;
#X connect 12 0 13 0;
#X connect 13 0 5 0;
#X connect 14 0 16 0;
#X connect 15 0 1 0;
#X connect 16 0 15 0;
#X connect 17 0 10 0;
#X connect 18 0 17 1;
#X restore 36 561 pd bass;


#X obj 1131 1153 vu 15 120 vu3 empty -1 -8 0 10 #404040 #000000 1 0;
#X obj 1180 1151 vsl 15 120 0 1 0 0 empty empty empty 0 -9 0 10 #fcfcfc #000000 #000000 0 1;
#X obj 1208 1159 *~;
#X obj 1208 1189 env~;
#X obj 1208 1220 - 100;


#X obj 1131 1106 line~;
#X floatatom 1262 1056 5 0 0 0 - - - 24;
#X msg 1131 1079 \$1 500;
#X obj 1217 1026 loadbang;
#X obj 1131 1052 * 1;
#X obj 1131 1026 r mute3;
#X obj 1207 1108 catch~ ch3;
#X obj 1207 1248 s vu3;
#N canvas 963 638 1321 708 chord_notes 0;
#X msg 372 155 53;
#X msg 487 152 69;
#X msg 604 165 72;
#X msg 715 157 76;
#X msg 624 204 72;
#X msg 507 191 67;
#X msg 735 196 74;
#X msg 665 278 72;
#X msg 548 265 67;
#X msg 413 229 52;
#X msg 528 226 67;
#X msg 645 239 71;
#X msg 756 231 74;
#X msg 433 268 57;
#X msg 393 194 55;
#X msg 776 270 76;
#X obj 418 344 mtof;
#X obj 516 343 mtof;
#X obj 621 340 mtof;
#X obj 728 337 mtof;
#X obj 521 50 sel 0 1 2 3;
#N canvas 1577 294 450 300 counter 0;
#X obj 23 17 inlet;
#X obj 22 49 tgl 15 0 empty empty empty 17 7 0 10 #fcfcfc #000000 #000000 0 1;
#X obj 22 69 t f b;
#X obj 22 109 metro 0.25 120 permin;
#X obj 22 184 f;
#X obj 22 213 % 16;
#X obj 22 242 outlet;
#X msg 102 73 tempo \$1 permin;
#X obj 61 184 + 1;
#X msg 49 142 0;
#X obj 102 43 r BPM;
#X connect 0 0 1 0;
#X connect 1 0 2 0;
#X connect 2 0 3 0;
#X connect 2 1 9 0;
#X connect 3 0 4 0;
#X connect 4 0 5 0;
#X connect 4 0 8 0;
#X connect 5 0 6 0;
#X connect 7 0 3 0;
#X connect 8 0 4 1;
#X connect 9 0 4 1;
#X connect 10 0 7 0;
#X restore 22 40 pd counter;
#X obj 21 71 hradio 15 1 0 16 empty empty empty 0 -8 0 10 #fcfcfc #000000 #000000 0;
#X obj 22 9 r start;
#X floatatom 22 92 5 0 0 0 - - - 0;
#X obj 21 125 sel 0;
#X obj 21 161 f;
#X obj 60 161 + 1;
#X obj 21 190 % 4;
#X floatatom 19 263 5 0 0 0 - - - 0;
#X floatatom 415 392 5 0 0 0 - - - 0;
#X floatatom 516 393 5 0 0 0 - - - 0;
#X floatatom 622 388 5 0 0 0 - - - 0;
#X floatatom 726 388 5 0 0 0 - - - 0;
#X obj 413 471 outlet;
#X obj 513 473 outlet;
#X obj 621 468 outlet;
#X obj 725 464 outlet;
#X obj 898 453 outlet;
#X text 976 454 velocity;
#X obj 161 169 bng 15 250 50 0 empty empty empty 17 7 0 10 #fcfcfc #000000 #000000;
#X obj 114 123 sel 2 4 6 12;
#X connect 0 0 16 0;
#X connect 1 0 17 0;
#X connect 2 0 18 0;
#X connect 3 0 19 0;
#X connect 4 0 18 0;
#X connect 5 0 17 0;
#X connect 6 0 19 0;
#X connect 7 0 18 0;
#X connect 8 0 17 0;
#X connect 9 0 16 0;
#X connect 10 0 17 0;
#X connect 11 0 18 0;
#X connect 12 0 19 0;
#X connect 13 0 16 0;
#X connect 14 0 16 0;
#X connect 15 0 19 0;
#X connect 16 0 30 0;
#X connect 17 0 31 0;
#X connect 18 0 32 0;
#X connect 19 0 33 0;
#X connect 20 0 0 0;
#X connect 20 0 1 0;
#X connect 20 0 2 0;
#X connect 20 0 3 0;
#X connect 20 1 14 0;
#X connect 20 1 5 0;
#X connect 20 1 4 0;
#X connect 20 1 6 0;
#X connect 20 2 9 0;
#X connect 20 2 10 0;
#X connect 20 2 11 0;
#X connect 20 2 12 0;
#X connect 20 3 13 0;
#X connect 20 3 8 0;
#X connect 20 3 7 0;
#X connect 20 3 15 0;
#X connect 21 0 22 0;
#X connect 22 0 24 0;
#X connect 23 0 21 0;
#X connect 24 0 25 0;
#X connect 24 0 41 0;
#X connect 25 0 26 0;
#X connect 26 0 27 0;
#X connect 26 0 28 0;
#X connect 27 0 26 1;
#X connect 28 0 29 0;
#X connect 29 0 20 0;
#X connect 30 0 34 0;
#X connect 31 0 35 0;
#X connect 32 0 36 0;
#X connect 33 0 37 0;
#X connect 40 0 29 0;
#X connect 41 0 40 0;
#X connect 41 1 40 0;
#X connect 41 2 40 0;
#X connect 41 3 40 0;
#X restore 104 624 pd chord_notes;
#N canvas 999 400 1321 708 chord_notes 0;
#X msg 372 155 53;
#X msg 487 152 69;
#X msg 604 165 72;
#X msg 715 157 76;
#X msg 624 204 72;
#X msg 507 191 67;
#X msg 735 196 74;
#X msg 665 278 72;
#X msg 548 265 67;
#X msg 413 229 52;
#X msg 528 226 67;
#X msg 645 239 71;
#X msg 756 231 74;
#X msg 433 268 57;
#X msg 393 194 55;
#X msg 776 270 76;
#X obj 418 344 mtof;
#X obj 516 343 mtof;
#X obj 621 340 mtof;
#X obj 728 337 mtof;
#X obj 521 50 sel 0 1 2 3;
#N canvas 1577 294 450 300 counter 0;
#X obj 23 17 inlet;
#X obj 22 49 tgl 15 0 empty empty empty 17 7 0 10 #fcfcfc #000000 #000000 0 1;
#X obj 22 69 t f b;
#X obj 22 109 metro 0.25 120 permin;
#X obj 22 184 f;
#X obj 22 213 % 16;
#X obj 22 242 outlet;
#X msg 102 73 tempo \$1 permin;
#X obj 61 184 + 1;
#X msg 49 142 0;
#X obj 102 43 r BPM;
#X connect 0 0 1 0;
#X connect 1 0 2 0;
#X connect 2 0 3 0;
#X connect 2 1 9 0;
#X connect 3 0 4 0;
#X connect 4 0 5 0;
#X connect 4 0 8 0;
#X connect 5 0 6 0;
#X connect 7 0 3 0;
#X connect 8 0 4 1;
#X connect 9 0 4 1;
#X connect 10 0 7 0;
#X restore 22 40 pd counter;
#X obj 21 71 hradio 15 1 0 16 empty empty empty 0 -8 0 10 #fcfcfc #000000 #000000 0;
#X obj 22 9 r start;
#X floatatom 22 92 5 0 0 0 - - - 0;
#X obj 21 125 sel 0;
#X obj 21 161 f;
#X obj 60 161 + 1;
#X obj 21 190 % 4;
#X floatatom 19 263 5 0 0 0 - - - 0;
#X floatatom 415 392 5 0 0 0 - - - 0;
#X floatatom 516 393 5 0 0 0 - - - 0;
#X floatatom 622 388 5 0 0 0 - - - 0;
#X floatatom 726 388 5 0 0 0 - - - 0;
#X obj 413 471 outlet;
#X obj 513 473 outlet;
#X obj 621 468 outlet;
#X obj 725 464 outlet;
#X obj 898 453 outlet;
#X text 976 454 velocity;
#X obj 161 169 bng 15 250 50 0 empty empty empty 17 7 0 10 #fcfcfc #000000 #000000;
#X obj 114 123 sel 2 4 6 12;
#X connect 0 0 16 0;
#X connect 1 0 17 0;
#X connect 2 0 18 0;
#X connect 3 0 19 0;
#X connect 4 0 18 0;
#X connect 5 0 17 0;
#X connect 6 0 19 0;
#X connect 7 0 18 0;
#X connect 8 0 17 0;
#X connect 9 0 16 0;
#X connect 10 0 17 0;
#X connect 11 0 18 0;
#X connect 12 0 19 0;
#X connect 13 0 16 0;
#X connect 14 0 16 0;
#X connect 15 0 19 0;
#X connect 16 0 30 0;
#X connect 17 0 31 0;
#X connect 18 0 32 0;
#X connect 19 0 33 0;
#X connect 20 0 0 0;
#X connect 20 0 1 0;
#X connect 20 0 2 0;
#X connect 20 0 3 0;
#X connect 20 1 14 0;
#X connect 20 1 5 0;
#X connect 20 1 4 0;
#X connect 20 1 6 0;
#X connect 20 2 9 0;
#X connect 20 2 10 0;
#X connect 20 2 11 0;
#X connect 20 2 12 0;
#X connect 20 3 13 0;
#X connect 20 3 8 0;
#X connect 20 3 7 0;
#X connect 20 3 15 0;
#X connect 21 0 22 0;
#X connect 22 0 24 0;
#X connect 23 0 21 0;
#X connect 24 0 25 0;
#X connect 24 0 41 0;
#X connect 25 0 26 0;
#X connect 26 0 27 0;
#X connect 26 0 28 0;
#X connect 27 0 26 1;
#X connect 28 0 29 0;
#X connect 29 0 20 0;
#X connect 30 0 34 0;
#X connect 31 0 35 0;
#X connect 32 0 36 0;
#X connect 33 0 37 0;
#X connect 40 0 29 0;
#X connect 41 0 40 0;
#X connect 41 1 40 0;
#X connect 41 2 40 0;
#X connect 41 3 40 0;
#X restore 23 461 pd chord_notes;
#X msg 230 410 160;
#X floatatom 605 703 5 0 0 0 - - - 24;
#X obj 560 673 loadbang;
#X obj 1158 382 loadbang;
#X msg 1158 411 100;
#X obj 1150 541 s lop_on;
#X obj 1473 1151 vu 15 120 vu4 empty -1 -8 0 10 #404040 #000000 1 0;
#X obj 1522 1149 vsl 15 120 0 1 0 0 empty empty empty 0 -9 0 10 #fcfcfc #000000 #000000 0 1;
#X obj 1550 1157 *~;
#X obj 1550 1187 env~;
#X obj 1550 1218 - 100;


#X obj 1473 1104 line~;
#X floatatom 1604 1054 5 0 0 0 - - - 24;
#X msg 1473 1077 \$1 500;
#X obj 1559 1024 loadbang;
#X obj 1473 1050 * 1;
#X msg 1559 1056 1;
#X text 501 986 Drums;
#X obj 615 56 r melody_hits;
#X obj 617 102 bng 50 250 50 0 empty empty empty 17 7 0 10 #fcfcfc #000000 #000000;
#X obj 826 107 bng 50 250 50 0 empty empty empty 17 7 0 10 #fcfcfc #000000 #000000;
#X obj 826 49 r kicks;
#X obj 951 448 s mute4;
#X obj 1473 1024 r mute4;
#X obj 1549 1106 catch~ ch4;
#X obj 1549 1246 s vu4;
#X text 845 988 Chords;
#X text 1201 981 Bass;


#X msg 1217 1058 0.5;
#X obj 15 2 loadbang;
#N canvas 126 284 643 404 lead1 0;
#X obj 65 19 inlet;
#X floatatom 65 131 5 0 0 0 - - - 0;
#X obj 68 264 *~;
#X msg 230 194 0.7 5 \, 0 200 10;
#X obj 69 342 outlet~;
#X obj 144 66 ftom;
#X obj 145 102 + 12;
#X obj 149 140 mtof;
#X obj 89 197 phasor~;
#X obj 11 194 osc~;
#X obj 49 228 +~;
#X connect 0 0 1 0;
#X connect 1 0 5 0;
#X connect 1 0 3 0;
#X connect 1 0 9 0;
#X connect 2 0 4 0;
#X connect 5 0 6 0;
#X connect 6 0 7 0;
#X connect 7 0 8 0;
#X connect 8 0 10 1;
#X connect 9 0 10 0;
#X connect 10 0 2 0;
#X restore 172 85 pd lead1;
#X text 1545 981 Arp, f 7;
#X obj 1785 1150 vu 15 120 vu5 empty -1 -8 0 10 #404040 #000000 1 0;
#X obj 1834 1148 vsl 15 120 0 1 0 0 empty empty empty 0 -9 0 10 #fcfcfc #000000 #000000 0 1;
#X obj 1862 1156 *~;
#X obj 1862 1186 env~;
#X obj 1862 1217 - 100;


#X obj 1785 1103 line~;
#X floatatom 1916 1053 5 0 0 0 - - - 24;
#X msg 1785 1076 \$1 500;
#X obj 1871 1023 loadbang;
#X obj 1785 1049 * 1;
#X msg 1871 1055 1;
#X obj 1785 1023 r mute5;
#X obj 1861 1105 catch~ ch5;
#X obj 1861 1245 s vu5;
#X obj 566 523 tgl 50 0 empty empty empty 17 7 0 10 #fcfcfc #000000 #000000 0 1;
#X obj 567 581 s mute5;
#X text 1857 980 Lead, f 7;
#N canvas 0 0 1924 1041 supersaw3 0;
#X obj 1478 631 *~;
#X obj 503 557 lop~ 100;
#X obj 54 57 inlet;
#X obj 1478 658 outlet~;
#X floatatom 241 57 5 0 2 0 - - - 36;
#X obj 84 332 phasor~;
#X obj 185 314 phasor~;
#X obj 316 332 phasor~;
#X obj 235 227 * 1;
#X obj 316 227 * -1;
#X obj 185 287 + 1.015;
#X obj 294 287 + 1.015;
#X obj 233 522 loadbang;
#X obj 61 607 snapshot~;
#X floatatom 61 634 5 0 0 0 - - - 0;
#X obj 233 549 tgl 15 0 empty empty empty 17 7 0 10 #fcfcfc #000000 #000000 0 1;
#X obj 233 567 metro 10;
#X obj 185 654 vsl 15 128 200 2000 0 0 empty empty empty 0 -9 0 10 #fcfcfc #000000 #000000 0 1;
#X obj 120 557 osc~ 0.2;
#X obj 418 314 phasor~;
#X obj 549 332 phasor~;
#X obj 418 287 + 1.015;
#X obj 527 287 + 1.015;
#X obj 468 227 * 2;
#X obj 549 227 * -2;
#X obj 646 314 phasor~;
#X obj 777 332 phasor~;
#X obj 646 287 + 1.015;
#X obj 755 287 + 1.015;
#X obj 696 227 * 3;
#X obj 775 227 * -3;
#X obj 877 314 phasor~;
#X obj 1008 332 phasor~;
#X obj 877 287 + 1.015;
#X obj 986 287 + 1.015;
#X obj 1112 314 phasor~;
#X obj 1243 332 phasor~;
#X obj 1112 287 + 1.015;
#X obj 1221 287 + 1.015;
#X obj 1340 314 phasor~;
#X obj 1471 332 phasor~;
#X obj 1340 287 + 1.015;
#X obj 1449 287 + 1.015;
#X obj 1573 314 phasor~;
#X obj 1704 332 phasor~;
#X obj 1573 287 + 1.015;
#X obj 1682 287 + 1.015;
#X obj 1819 314 phasor~;
#X obj 1950 332 phasor~;
#X obj 1819 287 + 1.015;
#X obj 1928 287 + 1.015;
#X obj 927 227 * 4;
#X obj 1006 227 * -4;
#X obj 1162 227 * 5;
#X obj 1241 227 * -5;
#X obj 1390 227 * 6;
#X obj 1469 227 * -6;
#X obj 1623 227 * 7;
#X obj 1702 227 * -7;
#X obj 1869 227 * 8;
#X obj 1948 227 * -9;
#X obj 439 418 *~ 0.8;
#X obj 439 445 r detune_vol;
#X obj 681 91 s detune_vol;
#X floatatom 623 91 5 0 0 0 - - - 0;
#X msg 623 64 0.8;
#X obj 623 37 loadbang;
#X obj 542 418 *~ 0.8;
#X obj 542 445 r detune_vol;
#X obj 656 418 *~ 0.8;
#X obj 656 445 r detune_vol;
#X obj 778 418 *~ 0.8;
#X obj 778 445 r detune_vol;
#X obj 875 418 *~ 0.8;
#X obj 875 445 r detune_vol;
#X obj 999 418 *~ 0.8;
#X obj 1013 418 r detune_vol;
#X obj 1116 418 *~ 0.8;
#X obj 1130 418 r detune_vol;
#X obj 1243 418 *~ 0.8;
#X obj 1243 445 r detune_vol;
#X obj 1344 418 *~ 0.8;
#X obj 1344 445 r detune_vol;
#X obj 1458 418 *~ 0.8;
#X obj 1458 445 r detune_vol;
#X obj 1572 418 *~ 0.8;
#X obj 1572 445 r detune_vol;
#X obj 1699 418 *~ 0.8;
#X obj 1699 445 r detune_vol;
#X obj 1800 418 *~ 0.8;
#X obj 1800 445 r detune_vol;
#X obj 1914 418 *~ 0.8;
#X obj 1914 445 r detune_vol;
#X obj 416 57 hsl 128 50 0 2 0 0 empty empty empty -2 -8 0 10 #fcfcfc #000000 #000000 0 1;
#X obj 152 32 loadbang;
#X msg 152 59 1.3;
#X msg 1145 78 0.5;
#X obj 138 418 del 10;
#X obj 65 421 bng 24 250 50 0 empty empty empty 0 -12 0 16 #fcfcfc #000000 #000000;
#X obj 61 487 line~;
#X msg 61 454 2000 10;
#X msg 155 455 200 300;
#X obj 1374 504 del 10;
#X obj 1301 507 bng 24 250 50 0 empty empty empty 0 -12 0 16 #fcfcfc #000000 #000000;
#X obj 1297 573 line~;
#X msg 1297 540 1 10;
#X msg 1391 541 0 300;
#X connect 0 0 3 0;
#X connect 1 0 0 0;
#X connect 2 0 5 0;
#X connect 2 0 10 0;
#X connect 2 0 11 0;
#X connect 2 0 21 0;
#X connect 2 0 22 0;
#X connect 2 0 27 0;
#X connect 2 0 28 0;
#X connect 2 0 98 0;
#X connect 2 0 103 0;
#X connect 4 0 8 0;
#X connect 4 0 9 0;
#X connect 4 0 23 0;
#X connect 4 0 24 0;
#X connect 4 0 29 0;
#X connect 4 0 30 0;
#X connect 4 0 51 0;
#X connect 4 0 52 0;
#X connect 4 0 53 0;
#X connect 4 0 54 0;
#X connect 4 0 55 0;
#X connect 4 0 56 0;
#X connect 4 0 57 0;
#X connect 4 0 58 0;
#X connect 4 0 59 0;
#X connect 4 0 60 0;
#X connect 5 0 1 0;
#X connect 6 0 1 0;
#X connect 7 0 1 0;
#X connect 8 0 10 1;
#X connect 9 0 11 1;
#X connect 10 0 6 0;
#X connect 11 0 7 0;
#X connect 12 0 15 0;
#X connect 13 0 14 0;
#X connect 13 0 17 0;
#X connect 14 0 1 1;
#X connect 15 0 16 0;
#X connect 16 0 13 0;
#X connect 19 0 61 0;
#X connect 20 0 67 0;
#X connect 21 0 19 0;
#X connect 22 0 20 0;
#X connect 23 0 21 1;
#X connect 24 0 22 1;
#X connect 25 0 69 0;
#X connect 26 0 71 0;
#X connect 27 0 25 0;
#X connect 28 0 26 0;
#X connect 29 0 27 1;
#X connect 30 0 28 1;
#X connect 31 0 73 0;
#X connect 32 0 75 0;
#X connect 33 0 31 0;
#X connect 34 0 32 0;
#X connect 35 0 77 0;
#X connect 36 0 79 0;
#X connect 37 0 35 0;
#X connect 38 0 36 0;
#X connect 39 0 81 0;
#X connect 40 0 83 0;
#X connect 41 0 39 0;
#X connect 42 0 40 0;
#X connect 43 0 85 0;
#X connect 44 0 87 0;
#X connect 45 0 43 0;
#X connect 46 0 44 0;
#X connect 47 0 89 0;
#X connect 48 0 91 0;
#X connect 49 0 47 0;
#X connect 50 0 48 0;
#X connect 51 0 33 1;
#X connect 52 0 34 1;
#X connect 53 0 37 1;
#X connect 54 0 38 1;
#X connect 55 0 41 1;
#X connect 56 0 42 1;
#X connect 57 0 45 1;
#X connect 58 0 46 1;
#X connect 59 0 49 1;
#X connect 60 0 50 1;
#X connect 62 0 61 1;
#X connect 64 0 63 0;
#X connect 65 0 64 0;
#X connect 66 0 65 0;
#X connect 68 0 67 1;
#X connect 70 0 69 1;
#X connect 72 0 71 1;
#X connect 74 0 73 1;
#X connect 76 0 75 1;
#X connect 78 0 77 1;
#X connect 80 0 79 1;
#X connect 82 0 81 1;
#X connect 84 0 83 1;
#X connect 86 0 85 1;
#X connect 88 0 87 1;
#X connect 90 0 89 1;
#X connect 92 0 91 1;
#X connect 93 0 4 0;
#X connect 94 0 95 0;
#X connect 95 0 4 0;
#X connect 97 0 101 0;
#X connect 98 0 100 0;
#X connect 98 0 97 0;
#X connect 99 0 13 0;
#X connect 100 0 99 0;
#X connect 101 0 99 0;
#X connect 102 0 106 0;
#X connect 103 0 105 0;
#X connect 103 0 102 0;
#X connect 104 0 0 1;
#X connect 105 0 104 0;
#X connect 106 0 104 0;
#X restore 237 792 pd supersaw3;
#N canvas -171 103 1924 1041 supersaw2 0;
#X obj 1478 631 *~;
#X obj 503 557 lop~ 100;
#X obj 54 57 inlet;
#X obj 1478 658 outlet~;
#X floatatom 241 57 5 0 2 0 - - - 36;
#X obj 84 332 phasor~;
#X obj 185 314 phasor~;
#X obj 316 332 phasor~;
#X obj 235 227 * 1;
#X obj 316 227 * -1;
#X obj 185 287 + 1.015;
#X obj 294 287 + 1.015;
#X obj 233 522 loadbang;
#X obj 61 607 snapshot~;
#X floatatom 61 634 5 0 0 0 - - - 0;
#X obj 233 549 tgl 15 0 empty empty empty 17 7 0 10 #fcfcfc #000000 #000000 0 1;
#X obj 233 567 metro 10;
#X obj 185 654 vsl 15 128 200 2000 0 0 empty empty empty 0 -9 0 10 #fcfcfc #000000 #000000 0 1;
#X obj 120 557 osc~ 0.2;
#X obj 418 314 phasor~;
#X obj 549 332 phasor~;
#X obj 418 287 + 1.015;
#X obj 527 287 + 1.015;
#X obj 468 227 * 2;
#X obj 549 227 * -2;
#X obj 646 314 phasor~;
#X obj 777 332 phasor~;
#X obj 646 287 + 1.015;
#X obj 755 287 + 1.015;
#X obj 696 227 * 3;
#X obj 775 227 * -3;
#X obj 877 314 phasor~;
#X obj 1008 332 phasor~;
#X obj 877 287 + 1.015;
#X obj 986 287 + 1.015;
#X obj 1112 314 phasor~;
#X obj 1243 332 phasor~;
#X obj 1112 287 + 1.015;
#X obj 1221 287 + 1.015;
#X obj 1340 314 phasor~;
#X obj 1471 332 phasor~;
#X obj 1340 287 + 1.015;
#X obj 1449 287 + 1.015;
#X obj 1573 314 phasor~;
#X obj 1704 332 phasor~;
#X obj 1573 287 + 1.015;
#X obj 1682 287 + 1.015;
#X obj 1819 314 phasor~;
#X obj 1950 332 phasor~;
#X obj 1819 287 + 1.015;
#X obj 1928 287 + 1.015;
#X obj 927 227 * 4;
#X obj 1006 227 * -4;
#X obj 1162 227 * 5;
#X obj 1241 227 * -5;
#X obj 1390 227 * 6;
#X obj 1469 227 * -6;
#X obj 1623 227 * 7;
#X obj 1702 227 * -7;
#X obj 1869 227 * 8;
#X obj 1948 227 * -9;
#X obj 439 418 *~ 0.8;
#X obj 439 445 r detune_vol;
#X obj 681 91 s detune_vol;
#X floatatom 623 91 5 0 0 0 - - - 0;
#X msg 623 64 0.8;
#X obj 623 37 loadbang;
#X obj 542 418 *~ 0.8;
#X obj 542 445 r detune_vol;
#X obj 656 418 *~ 0.8;
#X obj 656 445 r detune_vol;
#X obj 778 418 *~ 0.8;
#X obj 778 445 r detune_vol;
#X obj 875 418 *~ 0.8;
#X obj 875 445 r detune_vol;
#X obj 999 418 *~ 0.8;
#X obj 1013 418 r detune_vol;
#X obj 1116 418 *~ 0.8;
#X obj 1130 418 r detune_vol;
#X obj 1243 418 *~ 0.8;
#X obj 1243 445 r detune_vol;
#X obj 1344 418 *~ 0.8;
#X obj 1344 445 r detune_vol;
#X obj 1458 418 *~ 0.8;
#X obj 1458 445 r detune_vol;
#X obj 1572 418 *~ 0.8;
#X obj 1572 445 r detune_vol;
#X obj 1699 418 *~ 0.8;
#X obj 1699 445 r detune_vol;
#X obj 1800 418 *~ 0.8;
#X obj 1800 445 r detune_vol;
#X obj 1914 418 *~ 0.8;
#X obj 1914 445 r detune_vol;
#X obj 416 57 hsl 128 50 0 2 0 0 empty empty empty -2 -8 0 10 #fcfcfc #000000 #000000 0 1;
#X obj 152 32 loadbang;
#X msg 152 59 1.3;
#X msg 1145 78 0.5;
#X obj 117 451 del 10;
#X obj 44 454 bng 24 250 50 0 empty empty empty 0 -12 0 16 #fcfcfc #000000 #000000;
#X obj 40 520 line~;
#X msg 40 487 2000 10;
#X msg 134 488 200 500;
#X obj 1366 523 del 10;
#X obj 1293 526 bng 24 250 50 0 empty empty empty 0 -12 0 16 #fcfcfc #000000 #000000;
#X obj 1289 592 line~;
#X msg 1289 559 1 10;
#X msg 1383 560 0 600;
#X connect 0 0 3 0;
#X connect 1 0 0 0;
#X connect 2 0 5 0;
#X connect 2 0 10 0;
#X connect 2 0 11 0;
#X connect 2 0 21 0;
#X connect 2 0 22 0;
#X connect 2 0 27 0;
#X connect 2 0 28 0;
#X connect 2 0 98 0;
#X connect 2 0 103 0;
#X connect 4 0 8 0;
#X connect 4 0 9 0;
#X connect 4 0 23 0;
#X connect 4 0 24 0;
#X connect 4 0 29 0;
#X connect 4 0 30 0;
#X connect 4 0 51 0;
#X connect 4 0 52 0;
#X connect 4 0 53 0;
#X connect 4 0 54 0;
#X connect 4 0 55 0;
#X connect 4 0 56 0;
#X connect 4 0 57 0;
#X connect 4 0 58 0;
#X connect 4 0 59 0;
#X connect 4 0 60 0;
#X connect 5 0 1 0;
#X connect 6 0 1 0;
#X connect 7 0 1 0;
#X connect 8 0 10 1;
#X connect 9 0 11 1;
#X connect 10 0 6 0;
#X connect 11 0 7 0;
#X connect 12 0 15 0;
#X connect 13 0 14 0;
#X connect 13 0 17 0;
#X connect 14 0 1 1;
#X connect 15 0 16 0;
#X connect 16 0 13 0;
#X connect 19 0 61 0;
#X connect 20 0 67 0;
#X connect 21 0 19 0;
#X connect 22 0 20 0;
#X connect 23 0 21 1;
#X connect 24 0 22 1;
#X connect 25 0 69 0;
#X connect 26 0 71 0;
#X connect 27 0 25 0;
#X connect 28 0 26 0;
#X connect 29 0 27 1;
#X connect 30 0 28 1;
#X connect 31 0 73 0;
#X connect 32 0 75 0;
#X connect 33 0 31 0;
#X connect 34 0 32 0;
#X connect 35 0 77 0;
#X connect 36 0 79 0;
#X connect 37 0 35 0;
#X connect 38 0 36 0;
#X connect 39 0 81 0;
#X connect 40 0 83 0;
#X connect 41 0 39 0;
#X connect 42 0 40 0;
#X connect 43 0 85 0;
#X connect 44 0 87 0;
#X connect 45 0 43 0;
#X connect 46 0 44 0;
#X connect 47 0 89 0;
#X connect 48 0 91 0;
#X connect 49 0 47 0;
#X connect 50 0 48 0;
#X connect 51 0 33 1;
#X connect 52 0 34 1;
#X connect 53 0 37 1;
#X connect 54 0 38 1;
#X connect 55 0 41 1;
#X connect 56 0 42 1;
#X connect 57 0 45 1;
#X connect 58 0 46 1;
#X connect 59 0 49 1;
#X connect 60 0 50 1;
#X connect 61 0 1 0;
#X connect 62 0 61 1;
#X connect 64 0 63 0;
#X connect 65 0 64 0;
#X connect 66 0 65 0;
#X connect 67 0 1 0;
#X connect 68 0 67 1;
#X connect 69 0 1 0;
#X connect 70 0 69 1;
#X connect 71 0 1 0;
#X connect 72 0 71 1;
#X connect 73 0 1 0;
#X connect 74 0 73 1;
#X connect 75 0 1 0;
#X connect 76 0 75 1;
#X connect 77 0 1 0;
#X connect 78 0 77 1;
#X connect 79 0 1 0;
#X connect 80 0 79 1;
#X connect 81 0 1 0;
#X connect 82 0 81 1;
#X connect 83 0 1 0;
#X connect 84 0 83 1;
#X connect 85 0 1 0;
#X connect 86 0 85 1;
#X connect 87 0 1 0;
#X connect 88 0 87 1;
#X connect 89 0 1 0;
#X connect 90 0 89 1;
#X connect 91 0 1 0;
#X connect 92 0 91 1;
#X connect 93 0 4 0;
#X connect 94 0 95 0;
#X connect 95 0 4 0;
#X connect 97 0 101 0;
#X connect 98 0 100 0;
#X connect 98 0 97 0;
#X connect 99 0 13 0;
#X connect 100 0 99 0;
#X connect 101 0 99 0;
#X connect 102 0 106 0;
#X connect 103 0 105 0;
#X connect 103 0 102 0;
#X connect 104 0 0 1;
#X connect 105 0 104 0;
#X connect 106 0 104 0;
#X restore 39 790 pd supersaw2;


#X obj 37 819 *~ 0.1;
#X floatatom 308 756 5 0 1 0 - - - 0;
#X obj 378 725 vsl 15 128 0 1 0 0 empty empty empty 0 -9 0 10 #fcfcfc #000000 #000000 0 1;
#X obj 311 688 loadbang;
#X msg 311 720 0.2;
#X floatatom 106 753 5 0 1 0 - - - 0;
#X obj 184 736 vsl 15 128 0 1 0 0 empty empty empty 0 -9 0 10 #fcfcfc #000000 #000000 0 1;
#X obj 107 690 loadbang;
#X msg 107 722 0.1;
#X obj 255 820 *~ 0.2;
#X obj 150 303 s melody_hits;
#N canvas 1159 724 450 300 reverb 0;
#X obj 25 171 rev2~ 100 90 3000 20;
#X obj 34 203 *~;
#X obj 90 208 *~;
#X floatatom 145 126 5 0 1 0 - - - 0;
#X obj 221 29 vsl 15 128 0 1 0 0 empty empty empty 0 -9 0 10 #fcfcfc #000000 #000000 0 1;
#X obj 43 262 outlet~;
#X obj 125 264 outlet~;
#X obj 32 29 inlet~;
#X obj 108 56 loadbang;
#X msg 110 88 0.5;
#X connect 0 0 1 0;
#X connect 0 1 2 0;
#X connect 1 0 5 0;
#X connect 2 0 6 0;
#X connect 3 0 1 1;
#X connect 3 0 2 1;
#X connect 4 0 3 0;
#X connect 7 0 0 0;
#X connect 8 0 9 0;
#X connect 9 0 3 0;
#X restore 1640 1161 pd reverb;
#N canvas 1466 558 450 300 reverb 0;
#X obj 25 171 rev2~ 100 90 3000 20;
#X obj 34 203 *~;
#X obj 90 208 *~;
#X floatatom 145 126 5 0 1 0 - - - 0;
#X obj 221 29 vsl 15 128 0 1 0 0 empty empty empty 0 -9 0 10 #fcfcfc #000000 #000000 0 1;
#X obj 43 262 outlet~;
#X obj 125 264 outlet~;
#X obj 32 29 inlet~;
#X obj 108 56 loadbang;
#X msg 110 88 0.5;
#X connect 0 0 1 0;
#X connect 0 1 2 0;
#X connect 1 0 5 0;
#X connect 2 0 6 0;
#X connect 3 0 1 1;
#X connect 3 0 2 1;
#X connect 4 0 3 0;
#X connect 7 0 0 0;
#X connect 8 0 9 0;
#X connect 9 0 3 0;
#X restore 184 1128 pd reverb;

#X msg 860 1058 0.26;
#X msg 560 705 0.45;
#X obj 965 1115 r kicks;
#X obj 905 1155 *~;
#N canvas 59 438 1146 518 random_notes_euclidean 0;
#N canvas 421 286 992 1029 euclidean_rhythms 0;
#X obj 93 248 + 0;
#X obj 93 279 *;
#X floatatom 230 331 5 0 0 1 Notes - - 0;
#X obj 93 309 % 16;
#X obj 92 340 <;
#X obj 92 369 sel 1;
#X obj 92 398 bng 15 250 50 0 empty empty empty 17 7 0 10 #fcfcfc #000000 #000000;
#X obj 139 400 bng 15 250 50 0 empty empty empty 17 7 0 10 #fcfcfc #000000 #000000;
#X obj 93 197 t f f;
#X obj 92 422 f;
#X floatatom 92 457 5 0 0 0 - - - 0;
#X msg 409 144 16;
#X floatatom 409 175 5 0 0 1 Steps - - 0;
#X obj 96 12 inlet;
#X obj 230 15 inlet;
#X obj 92 497 outlet;
#X obj 285 260 loadbang;
#X msg 285 288 8;
#X obj 409 114 loadbang;
#N canvas 1025 404 450 336 counter 0;
#X obj 23 17 inlet;
#X obj 22 49 tgl 15 0 empty empty empty 17 7 0 10 #fcfcfc #000000 #000000 0 1;
#X obj 22 69 t f b;
#X obj 22 109 metro 0.25 120 permin;
#X obj 22 184 f;
#X obj 22 213 % 16;
#X obj 22 242 outlet;
#X msg 102 73 tempo \$1 permin;
#X obj 61 184 + 1;
#X msg 49 142 0;
#X obj 102 43 r BPM;
#X connect 0 0 1 0;
#X connect 1 0 2 0;
#X connect 2 0 3 0;
#X connect 2 1 9 0;
#X connect 3 0 4 0;
#X connect 4 0 5 0;
#X connect 4 0 8 0;
#X connect 5 0 6 0;
#X connect 7 0 3 0;
#X connect 8 0 4 1;
#X connect 9 0 4 1;
#X connect 10 0 7 0;
#X restore 95 70 pd counter;
#X obj 95 50 tgl 15 0 empty empty empty 17 7 0 10 #fcfcfc #000000 #000000 0 1;
#X obj 95 141 hradio 15 1 0 16 empty empty empty 0 -8 0 10 #fcfcfc #000000 #000000 0;
#X connect 0 0 1 0;
#X connect 1 0 3 0;
#X connect 2 0 1 1;
#X connect 2 0 4 1;
#X connect 3 0 4 0;
#X connect 4 0 5 0;
#X connect 5 0 6 0;
#X connect 5 1 7 0;
#X connect 6 0 9 0;
#X connect 8 0 0 0;
#X connect 8 1 9 1;
#X connect 9 0 10 0;
#X connect 10 0 15 0;
#X connect 11 0 12 0;
#X connect 13 0 20 0;
#X connect 14 0 2 0;
#X connect 16 0 17 0;
#X connect 17 0 2 0;
#X connect 18 0 11 0;
#X connect 19 0 21 0;
#X connect 20 0 19 0;
#X connect 21 0 8 0;
#X restore 16 103 pd euclidean_rhythms;
#X obj 16 66 tgl 15 0 empty empty empty 17 7 0 10 #fcfcfc #000000 #000000 0 1;
#X floatatom 212 71 5 0 0 0 - - - 0;
#X floatatom 19 155 5 0 0 0 - - - 0;
#X obj 19 225 bng 15 250 50 0 empty empty empty 17 7 0 10 #fcfcfc #000000 #000000;
#X obj 18 188 sel 0;
#X obj 212 9 random 16;
#X obj 211 42 + 1;
#X obj 101 153 t b f;
#X floatatom 149 223 5 0 0 0 - - - 0;
#N canvas 613 348 980 421 random_note 0;
#X msg 45 103 60;
#X floatatom 45 159 5 0 0 0 - - - 0;
#X obj 45 308 mtof;
#X obj 45 252 +;
#X floatatom 442 110 5 0 0 0 - - - 0;
#X obj 45 67 bng 15 250 50 0 empty empty empty 17 7 0 10 #fcfcfc #000000 #000000;
#X obj 442 81 random 7;
#X obj 442 137 sel 0 1 2 3 4 5 6;
#X msg 442 188 0;
#X msg 489 189 2;
#X msg 535 189 4;
#X msg 582 189 5;
#X msg 629 189 7;
#X msg 675 189 9;
#X msg 722 189 11;
#X floatatom 442 248 5 0 0 0 - - - 0;
#X floatatom 45 339 5 0 0 0 - - - 0;
#X obj 45 26 inlet;
#X obj 45 371 outlet;
#X floatatom 126 139 5 0 0 0 - - - 0;
#X obj 124 101 random 3;
#X obj 124 185 sel 0 1;
#X obj 47 210 +;
#X msg 123 217 -12;
#X msg 170 218 12;
#X floatatom 101 281 5 0 0 0 - - - 0;
#X connect 0 0 1 0;
#X connect 1 0 22 0;
#X connect 2 0 16 0;
#X connect 3 0 2 0;
#X connect 3 0 25 0;
#X connect 4 0 7 0;
#X connect 5 0 6 0;
#X connect 5 0 0 0;
#X connect 5 0 20 0;
#X connect 6 0 4 0;
#X connect 7 0 8 0;
#X connect 7 1 9 0;
#X connect 7 2 10 0;
#X connect 7 3 11 0;
#X connect 7 4 12 0;
#X connect 7 5 13 0;
#X connect 7 6 14 0;
#X connect 8 0 15 0;
#X connect 9 0 15 0;
#X connect 10 0 15 0;
#X connect 11 0 15 0;
#X connect 12 0 15 0;
#X connect 13 0 15 0;
#X connect 14 0 15 0;
#X connect 15 0 3 1;
#X connect 16 0 18 0;
#X connect 17 0 5 0;
#X connect 19 0 21 0;
#X connect 20 0 19 0;
#X connect 21 0 23 0;
#X connect 21 1 24 0;
#X connect 22 0 3 0;
#X connect 23 0 22 1;
#X connect 24 0 22 1;
#X restore 148 189 pd random_note;
#X obj 15 11 inlet;
#X obj 149 261 outlet;
#X connect 0 0 3 0;
#X connect 0 0 8 0;
#X connect 1 0 0 0;
#X connect 2 0 0 1;
#X connect 3 0 5 0;
#X connect 4 0 6 0;
#X connect 5 0 4 0;
#X connect 6 0 7 0;
#X connect 7 0 2 0;
#X connect 8 1 10 0;
#X connect 9 0 12 0;
#X connect 10 0 9 0;
#X connect 11 0 1 0;
#X restore 162 34 pd random_notes_euclidean;
#X obj 161 4 r start;

#N canvas 1159 724 450 300 reverb 0;
#X obj 25 171 rev2~ 100 90 3000 20;
#X obj 34 203 *~;
#X obj 90 208 *~;
#X floatatom 145 126 5 0 1 0 - - - 0;
#X obj 221 29 vsl 15 128 0 1 0 0 empty empty empty 0 -9 0 10 #fcfcfc #000000 #000000 0 1;
#X obj 43 262 outlet~;
#X obj 125 264 outlet~;
#X obj 32 29 inlet~;
#X obj 108 56 loadbang;
#X msg 110 88 0.5;
#X connect 0 0 1 0;
#X connect 0 1 2 0;
#X connect 1 0 5 0;
#X connect 2 0 6 0;
#X connect 3 0 1 1;
#X connect 3 0 2 1;
#X connect 4 0 3 0;
#X connect 7 0 0 0;
#X connect 8 0 9 0;
#X connect 9 0 3 0;
#X restore 1935 1167 pd reverb;
#X obj 235 511 loadbang;
#X obj 686 152 r mute1;
#X obj 898 158 r mute4;
#X floatatom 613 206 5 0 0 0 - - - 0;
#X obj 615 168 tgl 24 0 empty empty empty 0 -12 0 16 #fcfcfc #000000 #000000 0 1;
#X obj 827 169 tgl 24 0 empty empty empty 0 -12 0 16 #fcfcfc #000000 #000000 0 1;
#X floatatom 683 206 5 0 0 0 - - - 0;
#X floatatom 824 205 5 0 0 0 - - - 0;
#X floatatom 894 205 5 0 0 0 - - - 0;
#X floatatom 686 241 5 0 0 0 - - - 0;
#X obj 614 255 *;
#X floatatom 897 237 5 0 0 0 - - - 0;
#X obj 825 251 *;
#X obj 686 275 s hits_melody;
#X obj 898 273 s hits_kicks;
#X obj 1148 451 loadbang;
#N canvas -171 103 1924 1041 supersaw2 0;
#X obj 1478 631 *~;
#X obj 503 557 lop~ 100;
#X obj 54 57 inlet;
#X obj 1478 658 outlet~;
#X floatatom 241 57 5 0 2 0 - - - 36;
#X obj 84 332 phasor~;
#X obj 185 314 phasor~;
#X obj 316 332 phasor~;
#X obj 235 227 * 1;
#X obj 316 227 * -1;
#X obj 185 287 + 1.015;
#X obj 294 287 + 1.015;
#X obj 233 522 loadbang;
#X obj 61 607 snapshot~;
#X floatatom 61 634 5 0 0 0 - - - 0;
#X obj 233 549 tgl 15 0 empty empty empty 17 7 0 10 #fcfcfc #000000 #000000 0 1;
#X obj 233 567 metro 10;
#X obj 185 654 vsl 15 128 200 2000 0 0 empty empty empty 0 -9 0 10 #fcfcfc #000000 #000000 0 1;
#X obj 120 557 osc~ 0.2;
#X obj 418 314 phasor~;
#X obj 549 332 phasor~;
#X obj 418 287 + 1.015;
#X obj 527 287 + 1.015;
#X obj 468 227 * 2;
#X obj 549 227 * -2;
#X obj 646 314 phasor~;
#X obj 777 332 phasor~;
#X obj 646 287 + 1.015;
#X obj 755 287 + 1.015;
#X obj 696 227 * 3;
#X obj 775 227 * -3;
#X obj 877 314 phasor~;
#X obj 1008 332 phasor~;
#X obj 877 287 + 1.015;
#X obj 986 287 + 1.015;
#X obj 1112 314 phasor~;
#X obj 1243 332 phasor~;
#X obj 1112 287 + 1.015;
#X obj 1221 287 + 1.015;
#X obj 1340 314 phasor~;
#X obj 1471 332 phasor~;
#X obj 1340 287 + 1.015;
#X obj 1449 287 + 1.015;
#X obj 1573 314 phasor~;
#X obj 1704 332 phasor~;
#X obj 1573 287 + 1.015;
#X obj 1682 287 + 1.015;
#X obj 1819 314 phasor~;
#X obj 1950 332 phasor~;
#X obj 1819 287 + 1.015;
#X obj 1928 287 + 1.015;
#X obj 927 227 * 4;
#X obj 1006 227 * -4;
#X obj 1162 227 * 5;
#X obj 1241 227 * -5;
#X obj 1390 227 * 6;
#X obj 1469 227 * -6;
#X obj 1623 227 * 7;
#X obj 1702 227 * -7;
#X obj 1869 227 * 8;
#X obj 1948 227 * -9;
#X obj 439 418 *~ 0.8;
#X obj 439 445 r detune_vol;
#X obj 681 91 s detune_vol;
#X floatatom 623 91 5 0 0 0 - - - 0;
#X msg 623 64 0.8;
#X obj 623 37 loadbang;
#X obj 542 418 *~ 0.8;
#X obj 542 445 r detune_vol;
#X obj 656 418 *~ 0.8;
#X obj 656 445 r detune_vol;
#X obj 778 418 *~ 0.8;
#X obj 778 445 r detune_vol;
#X obj 875 418 *~ 0.8;
#X obj 875 445 r detune_vol;
#X obj 999 418 *~ 0.8;
#X obj 1013 418 r detune_vol;
#X obj 1116 418 *~ 0.8;
#X obj 1130 418 r detune_vol;
#X obj 1243 418 *~ 0.8;
#X obj 1243 445 r detune_vol;
#X obj 1344 418 *~ 0.8;
#X obj 1344 445 r detune_vol;
#X obj 1458 418 *~ 0.8;
#X obj 1458 445 r detune_vol;
#X obj 1572 418 *~ 0.8;
#X obj 1572 445 r detune_vol;
#X obj 1699 418 *~ 0.8;
#X obj 1699 445 r detune_vol;
#X obj 1800 418 *~ 0.8;
#X obj 1800 445 r detune_vol;
#X obj 1914 418 *~ 0.8;
#X obj 1914 445 r detune_vol;
#X obj 416 57 hsl 128 50 0 2 0 0 empty empty empty -2 -8 0 10 #fcfcfc #000000 #000000 0 1;
#X obj 152 32 loadbang;
#X msg 152 59 1.3;
#X msg 1145 78 0.5;
#X obj 117 451 del 10;
#X obj 44 454 bng 24 250 50 0 empty empty empty 0 -12 0 16 #fcfcfc #000000 #000000;
#X obj 40 520 line~;
#X msg 40 487 2000 10;
#X msg 134 488 200 500;
#X obj 1366 523 del 10;
#X obj 1293 526 bng 24 250 50 0 empty empty empty 0 -12 0 16 #fcfcfc #000000 #000000;
#X obj 1289 592 line~;
#X msg 1289 559 1 10;
#X msg 1383 560 0 600;
#X connect 0 0 3 0;
#X connect 1 0 0 0;
#X connect 2 0 5 0;
#X connect 2 0 10 0;
#X connect 2 0 11 0;
#X connect 2 0 21 0;
#X connect 2 0 22 0;
#X connect 2 0 27 0;
#X connect 2 0 28 0;
#X connect 2 0 98 0;
#X connect 2 0 103 0;
#X connect 4 0 8 0;
#X connect 4 0 9 0;
#X connect 4 0 23 0;
#X connect 4 0 24 0;
#X connect 4 0 29 0;
#X connect 4 0 30 0;
#X connect 4 0 51 0;
#X connect 4 0 52 0;
#X connect 4 0 53 0;
#X connect 4 0 54 0;
#X connect 4 0 55 0;
#X connect 4 0 56 0;
#X connect 4 0 57 0;
#X connect 4 0 58 0;
#X connect 4 0 59 0;
#X connect 4 0 60 0;
#X connect 5 0 1 0;
#X connect 6 0 1 0;
#X connect 7 0 1 0;
#X connect 8 0 10 1;
#X connect 9 0 11 1;
#X connect 10 0 6 0;
#X connect 11 0 7 0;
#X connect 12 0 15 0;
#X connect 13 0 14 0;
#X connect 13 0 17 0;
#X connect 14 0 1 1;
#X connect 15 0 16 0;
#X connect 16 0 13 0;
#X connect 19 0 61 0;
#X connect 20 0 67 0;
#X connect 21 0 19 0;
#X connect 22 0 20 0;
#X connect 23 0 21 1;
#X connect 24 0 22 1;
#X connect 25 0 69 0;
#X connect 26 0 71 0;
#X connect 27 0 25 0;
#X connect 28 0 26 0;
#X connect 29 0 27 1;
#X connect 30 0 28 1;
#X connect 31 0 73 0;
#X connect 32 0 75 0;
#X connect 33 0 31 0;
#X connect 34 0 32 0;
#X connect 35 0 77 0;
#X connect 36 0 79 0;
#X connect 37 0 35 0;
#X connect 38 0 36 0;
#X connect 39 0 81 0;
#X connect 40 0 83 0;
#X connect 41 0 39 0;
#X connect 42 0 40 0;
#X connect 43 0 85 0;
#X connect 44 0 87 0;
#X connect 45 0 43 0;
#X connect 46 0 44 0;
#X connect 47 0 89 0;
#X connect 48 0 91 0;
#X connect 49 0 47 0;
#X connect 50 0 48 0;
#X connect 51 0 33 1;
#X connect 52 0 34 1;
#X connect 53 0 37 1;
#X connect 54 0 38 1;
#X connect 55 0 41 1;
#X connect 56 0 42 1;
#X connect 57 0 45 1;
#X connect 58 0 46 1;
#X connect 59 0 49 1;
#X connect 60 0 50 1;
#X connect 61 0 1 0;
#X connect 62 0 61 1;
#X connect 64 0 63 0;
#X connect 65 0 64 0;
#X connect 66 0 65 0;
#X connect 67 0 1 0;
#X connect 68 0 67 1;
#X connect 69 0 1 0;
#X connect 70 0 69 1;
#X connect 71 0 1 0;
#X connect 72 0 71 1;
#X connect 73 0 1 0;
#X connect 74 0 73 1;
#X connect 75 0 1 0;
#X connect 76 0 75 1;
#X connect 77 0 1 0;
#X connect 78 0 77 1;
#X connect 79 0 1 0;
#X connect 80 0 79 1;
#X connect 81 0 1 0;
#X connect 82 0 81 1;
#X connect 83 0 1 0;
#X connect 84 0 83 1;
#X connect 85 0 1 0;
#X connect 86 0 85 1;
#X connect 87 0 1 0;
#X connect 88 0 87 1;
#X connect 89 0 1 0;
#X connect 90 0 89 1;
#X connect 91 0 1 0;
#X connect 92 0 91 1;
#X connect 93 0 4 0;
#X connect 94 0 95 0;
#X connect 95 0 4 0;
#X connect 97 0 101 0;
#X connect 98 0 100 0;
#X connect 98 0 97 0;
#X connect 99 0 13 0;
#X connect 100 0 99 0;
#X connect 101 0 99 0;
#X connect 102 0 106 0;
#X connect 103 0 105 0;
#X connect 103 0 102 0;
#X connect 104 0 0 1;
#X connect 105 0 104 0;
#X connect 106 0 104 0;
#X restore 37 878 pd supersaw2;

#X obj 35 907 *~ 0.1;
#N canvas -171 103 1924 1041 supersaw2 0;
#X obj 1478 631 *~;
#X obj 503 557 lop~ 100;
#X obj 54 57 inlet;
#X obj 1478 658 outlet~;
#X floatatom 241 57 5 0 2 0 - - - 36;
#X obj 84 332 phasor~;
#X obj 185 314 phasor~;
#X obj 316 332 phasor~;
#X obj 235 227 * 1;
#X obj 316 227 * -1;
#X obj 185 287 + 1.015;
#X obj 294 287 + 1.015;
#X obj 233 522 loadbang;
#X obj 61 607 snapshot~;
#X floatatom 61 634 5 0 0 0 - - - 0;
#X obj 233 549 tgl 15 0 empty empty empty 17 7 0 10 #fcfcfc #000000 #000000 0 1;
#X obj 233 567 metro 10;
#X obj 185 654 vsl 15 128 200 2000 0 0 empty empty empty 0 -9 0 10 #fcfcfc #000000 #000000 0 1;
#X obj 120 557 osc~ 0.2;
#X obj 418 314 phasor~;
#X obj 549 332 phasor~;
#X obj 418 287 + 1.015;
#X obj 527 287 + 1.015;
#X obj 468 227 * 2;
#X obj 549 227 * -2;
#X obj 646 314 phasor~;
#X obj 777 332 phasor~;
#X obj 646 287 + 1.015;
#X obj 755 287 + 1.015;
#X obj 696 227 * 3;
#X obj 775 227 * -3;
#X obj 877 314 phasor~;
#X obj 1008 332 phasor~;
#X obj 877 287 + 1.015;
#X obj 986 287 + 1.015;
#X obj 1112 314 phasor~;
#X obj 1243 332 phasor~;
#X obj 1112 287 + 1.015;
#X obj 1221 287 + 1.015;
#X obj 1340 314 phasor~;
#X obj 1471 332 phasor~;
#X obj 1340 287 + 1.015;
#X obj 1449 287 + 1.015;
#X obj 1573 314 phasor~;
#X obj 1704 332 phasor~;
#X obj 1573 287 + 1.015;
#X obj 1682 287 + 1.015;
#X obj 1819 314 phasor~;
#X obj 1950 332 phasor~;
#X obj 1819 287 + 1.015;
#X obj 1928 287 + 1.015;
#X obj 927 227 * 4;
#X obj 1006 227 * -4;
#X obj 1162 227 * 5;
#X obj 1241 227 * -5;
#X obj 1390 227 * 6;
#X obj 1469 227 * -6;
#X obj 1623 227 * 7;
#X obj 1702 227 * -7;
#X obj 1869 227 * 8;
#X obj 1948 227 * -9;
#X obj 439 418 *~ 0.8;
#X obj 439 445 r detune_vol;
#X obj 681 91 s detune_vol;
#X floatatom 623 91 5 0 0 0 - - - 0;
#X msg 623 64 0.8;
#X obj 623 37 loadbang;
#X obj 542 418 *~ 0.8;
#X obj 542 445 r detune_vol;
#X obj 656 418 *~ 0.8;
#X obj 656 445 r detune_vol;
#X obj 778 418 *~ 0.8;
#X obj 778 445 r detune_vol;
#X obj 875 418 *~ 0.8;
#X obj 875 445 r detune_vol;
#X obj 999 418 *~ 0.8;
#X obj 1013 418 r detune_vol;
#X obj 1116 418 *~ 0.8;
#X obj 1130 418 r detune_vol;
#X obj 1243 418 *~ 0.8;
#X obj 1243 445 r detune_vol;
#X obj 1344 418 *~ 0.8;
#X obj 1344 445 r detune_vol;
#X obj 1458 418 *~ 0.8;
#X obj 1458 445 r detune_vol;
#X obj 1572 418 *~ 0.8;
#X obj 1572 445 r detune_vol;
#X obj 1699 418 *~ 0.8;
#X obj 1699 445 r detune_vol;
#X obj 1800 418 *~ 0.8;
#X obj 1800 445 r detune_vol;
#X obj 1914 418 *~ 0.8;
#X obj 1914 445 r detune_vol;
#X obj 416 57 hsl 128 50 0 2 0 0 empty empty empty -2 -8 0 10 #fcfcfc #000000 #000000 0 1;
#X obj 152 32 loadbang;
#X msg 152 59 1.3;
#X msg 1145 78 0.5;
#X obj 117 451 del 10;
#X obj 44 454 bng 24 250 50 0 empty empty empty 0 -12 0 16 #fcfcfc #000000 #000000;
#X obj 40 520 line~;
#X msg 40 487 2000 10;
#X msg 134 488 200 500;
#X obj 1366 523 del 10;
#X obj 1293 526 bng 24 250 50 0 empty empty empty 0 -12 0 16 #fcfcfc #000000 #000000;
#X obj 1289 592 line~;
#X msg 1289 559 1 10;
#X msg 1383 560 0 600;
#X connect 0 0 3 0;
#X connect 1 0 0 0;
#X connect 2 0 5 0;
#X connect 2 0 10 0;
#X connect 2 0 11 0;
#X connect 2 0 21 0;
#X connect 2 0 22 0;
#X connect 2 0 27 0;
#X connect 2 0 28 0;
#X connect 2 0 98 0;
#X connect 2 0 103 0;
#X connect 4 0 8 0;
#X connect 4 0 9 0;
#X connect 4 0 23 0;
#X connect 4 0 24 0;
#X connect 4 0 29 0;
#X connect 4 0 30 0;
#X connect 4 0 51 0;
#X connect 4 0 52 0;
#X connect 4 0 53 0;
#X connect 4 0 54 0;
#X connect 4 0 55 0;
#X connect 4 0 56 0;
#X connect 4 0 57 0;
#X connect 4 0 58 0;
#X connect 4 0 59 0;
#X connect 4 0 60 0;
#X connect 5 0 1 0;
#X connect 6 0 1 0;
#X connect 7 0 1 0;
#X connect 8 0 10 1;
#X connect 9 0 11 1;
#X connect 10 0 6 0;
#X connect 11 0 7 0;
#X connect 12 0 15 0;
#X connect 13 0 14 0;
#X connect 13 0 17 0;
#X connect 14 0 1 1;
#X connect 15 0 16 0;
#X connect 16 0 13 0;
#X connect 19 0 61 0;
#X connect 20 0 67 0;
#X connect 21 0 19 0;
#X connect 22 0 20 0;
#X connect 23 0 21 1;
#X connect 24 0 22 1;
#X connect 25 0 69 0;
#X connect 26 0 71 0;
#X connect 27 0 25 0;
#X connect 28 0 26 0;
#X connect 29 0 27 1;
#X connect 30 0 28 1;
#X connect 31 0 73 0;
#X connect 32 0 75 0;
#X connect 33 0 31 0;
#X connect 34 0 32 0;
#X connect 35 0 77 0;
#X connect 36 0 79 0;
#X connect 37 0 35 0;
#X connect 38 0 36 0;
#X connect 39 0 81 0;
#X connect 40 0 83 0;
#X connect 41 0 39 0;
#X connect 42 0 40 0;
#X connect 43 0 85 0;
#X connect 44 0 87 0;
#X connect 45 0 43 0;
#X connect 46 0 44 0;
#X connect 47 0 89 0;
#X connect 48 0 91 0;
#X connect 49 0 47 0;
#X connect 50 0 48 0;
#X connect 51 0 33 1;
#X connect 52 0 34 1;
#X connect 53 0 37 1;
#X connect 54 0 38 1;
#X connect 55 0 41 1;
#X connect 56 0 42 1;
#X connect 57 0 45 1;
#X connect 58 0 46 1;
#X connect 59 0 49 1;
#X connect 60 0 50 1;
#X connect 61 0 1 0;
#X connect 62 0 61 1;
#X connect 64 0 63 0;
#X connect 65 0 64 0;
#X connect 66 0 65 0;
#X connect 67 0 1 0;
#X connect 68 0 67 1;
#X connect 69 0 1 0;
#X connect 70 0 69 1;
#X connect 71 0 1 0;
#X connect 72 0 71 1;
#X connect 73 0 1 0;
#X connect 74 0 73 1;
#X connect 75 0 1 0;
#X connect 76 0 75 1;
#X connect 77 0 1 0;
#X connect 78 0 77 1;
#X connect 79 0 1 0;
#X connect 80 0 79 1;
#X connect 81 0 1 0;
#X connect 82 0 81 1;
#X connect 83 0 1 0;
#X connect 84 0 83 1;
#X connect 85 0 1 0;
#X connect 86 0 85 1;
#X connect 87 0 1 0;
#X connect 88 0 87 1;
#X connect 89 0 1 0;
#X connect 90 0 89 1;
#X connect 91 0 1 0;
#X connect 92 0 91 1;
#X connect 93 0 4 0;
#X connect 94 0 95 0;
#X connect 95 0 4 0;
#X connect 97 0 101 0;
#X connect 98 0 100 0;
#X connect 98 0 97 0;
#X connect 99 0 13 0;
#X connect 100 0 99 0;
#X connect 101 0 99 0;
#X connect 102 0 106 0;
#X connect 103 0 105 0;
#X connect 103 0 102 0;
#X connect 104 0 0 1;
#X connect 105 0 104 0;
#X connect 106 0 104 0;
#X restore 30 960 pd supersaw2;

#X obj 28 989 *~ 0.1;
#N canvas -33 127 1924 1041 supersaw2 0;
#X obj 1478 631 *~;
#X obj 503 557 lop~ 100;
#X obj 54 57 inlet;
#X obj 1478 658 outlet~;
#X floatatom 241 57 5 0 2 0 - - - 36;
#X obj 84 332 phasor~;
#X obj 185 314 phasor~;
#X obj 316 332 phasor~;
#X obj 235 227 * 1;
#X obj 316 227 * -1;
#X obj 185 287 + 1.015;
#X obj 294 287 + 1.015;
#X obj 233 522 loadbang;
#X obj 61 607 snapshot~;
#X floatatom 61 634 5 0 0 0 - - - 0;
#X obj 233 549 tgl 15 0 empty empty empty 17 7 0 10 #fcfcfc #000000 #000000 0 1;
#X obj 233 567 metro 10;
#X obj 185 654 vsl 15 128 200 2000 0 0 empty empty empty 0 -9 0 10 #fcfcfc #000000 #000000 0 1;
#X obj 120 557 osc~ 0.2;
#X obj 418 314 phasor~;
#X obj 549 332 phasor~;
#X obj 418 287 + 1.015;
#X obj 527 287 + 1.015;
#X obj 468 227 * 2;
#X obj 549 227 * -2;
#X obj 646 314 phasor~;
#X obj 777 332 phasor~;
#X obj 646 287 + 1.015;
#X obj 755 287 + 1.015;
#X obj 696 227 * 3;
#X obj 775 227 * -3;
#X obj 877 314 phasor~;
#X obj 1008 332 phasor~;
#X obj 877 287 + 1.015;
#X obj 986 287 + 1.015;
#X obj 1112 314 phasor~;
#X obj 1243 332 phasor~;
#X obj 1112 287 + 1.015;
#X obj 1221 287 + 1.015;
#X obj 1340 314 phasor~;
#X obj 1471 332 phasor~;
#X obj 1340 287 + 1.015;
#X obj 1449 287 + 1.015;
#X obj 1573 314 phasor~;
#X obj 1704 332 phasor~;
#X obj 1573 287 + 1.015;
#X obj 1682 287 + 1.015;
#X obj 1819 314 phasor~;
#X obj 1950 332 phasor~;
#X obj 1819 287 + 1.015;
#X obj 1928 287 + 1.015;
#X obj 927 227 * 4;
#X obj 1006 227 * -4;
#X obj 1162 227 * 5;
#X obj 1241 227 * -5;
#X obj 1390 227 * 6;
#X obj 1469 227 * -6;
#X obj 1623 227 * 7;
#X obj 1702 227 * -7;
#X obj 1869 227 * 8;
#X obj 1948 227 * -9;
#X obj 439 418 *~ 0.8;
#X obj 439 445 r detune_vol;
#X obj 681 91 s detune_vol;
#X floatatom 623 91 5 0 0 0 - - - 0;
#X msg 623 64 0.8;
#X obj 623 37 loadbang;
#X obj 542 418 *~ 0.8;
#X obj 542 445 r detune_vol;
#X obj 656 418 *~ 0.8;
#X obj 656 445 r detune_vol;
#X obj 778 418 *~ 0.8;
#X obj 778 445 r detune_vol;
#X obj 875 418 *~ 0.8;
#X obj 875 445 r detune_vol;
#X obj 999 418 *~ 0.8;
#X obj 1013 418 r detune_vol;
#X obj 1116 418 *~ 0.8;
#X obj 1130 418 r detune_vol;
#X obj 1243 418 *~ 0.8;
#X obj 1243 445 r detune_vol;
#X obj 1344 418 *~ 0.8;
#X obj 1344 445 r detune_vol;
#X obj 1458 418 *~ 0.8;
#X obj 1458 445 r detune_vol;
#X obj 1572 418 *~ 0.8;
#X obj 1572 445 r detune_vol;
#X obj 1699 418 *~ 0.8;
#X obj 1699 445 r detune_vol;
#X obj 1800 418 *~ 0.8;
#X obj 1800 445 r detune_vol;
#X obj 1914 418 *~ 0.8;
#X obj 1914 445 r detune_vol;
#X obj 416 57 hsl 128 50 0 2 0 0 empty empty empty -2 -8 0 10 #fcfcfc #000000 #000000 0 1;
#X obj 152 32 loadbang;
#X msg 152 59 1.3;
#X msg 1145 78 0.5;
#X obj 117 451 del 10;
#X obj 44 454 bng 24 250 50 0 empty empty empty 0 -12 0 16 #fcfcfc #000000 #000000;
#X obj 40 520 line~;
#X msg 40 487 2000 10;
#X msg 134 488 200 500;
#X obj 1366 523 del 10;
#X obj 1293 526 bng 24 250 50 0 empty empty empty 0 -12 0 16 #fcfcfc #000000 #000000;
#X obj 1289 592 line~;
#X msg 1289 559 1 10;
#X msg 1383 560 0 600;
#X connect 0 0 3 0;
#X connect 1 0 0 0;
#X connect 2 0 5 0;
#X connect 2 0 10 0;
#X connect 2 0 11 0;
#X connect 2 0 21 0;
#X connect 2 0 22 0;
#X connect 2 0 27 0;
#X connect 2 0 28 0;
#X connect 2 0 98 0;
#X connect 2 0 103 0;
#X connect 4 0 8 0;
#X connect 4 0 9 0;
#X connect 4 0 23 0;
#X connect 4 0 24 0;
#X connect 4 0 29 0;
#X connect 4 0 30 0;
#X connect 4 0 51 0;
#X connect 4 0 52 0;
#X connect 4 0 53 0;
#X connect 4 0 54 0;
#X connect 4 0 55 0;
#X connect 4 0 56 0;
#X connect 4 0 57 0;
#X connect 4 0 58 0;
#X connect 4 0 59 0;
#X connect 4 0 60 0;
#X connect 5 0 1 0;
#X connect 6 0 1 0;
#X connect 7 0 1 0;
#X connect 8 0 10 1;
#X connect 9 0 11 1;
#X connect 10 0 6 0;
#X connect 11 0 7 0;
#X connect 12 0 15 0;
#X connect 13 0 14 0;
#X connect 13 0 17 0;
#X connect 14 0 1 1;
#X connect 15 0 16 0;
#X connect 16 0 13 0;
#X connect 19 0 61 0;
#X connect 20 0 67 0;
#X connect 21 0 19 0;
#X connect 22 0 20 0;
#X connect 23 0 21 1;
#X connect 24 0 22 1;
#X connect 25 0 69 0;
#X connect 26 0 71 0;
#X connect 27 0 25 0;
#X connect 28 0 26 0;
#X connect 29 0 27 1;
#X connect 30 0 28 1;
#X connect 31 0 73 0;
#X connect 32 0 75 0;
#X connect 33 0 31 0;
#X connect 34 0 32 0;
#X connect 35 0 77 0;
#X connect 36 0 79 0;
#X connect 37 0 35 0;
#X connect 38 0 36 0;
#X connect 39 0 81 0;
#X connect 40 0 83 0;
#X connect 41 0 39 0;
#X connect 42 0 40 0;
#X connect 43 0 85 0;
#X connect 44 0 87 0;
#X connect 45 0 43 0;
#X connect 46 0 44 0;
#X connect 47 0 89 0;
#X connect 48 0 91 0;
#X connect 49 0 47 0;
#X connect 50 0 48 0;
#X connect 51 0 33 1;
#X connect 52 0 34 1;
#X connect 53 0 37 1;
#X connect 54 0 38 1;
#X connect 55 0 41 1;
#X connect 56 0 42 1;
#X connect 57 0 45 1;
#X connect 58 0 46 1;
#X connect 59 0 49 1;
#X connect 60 0 50 1;
#X connect 61 0 1 0;
#X connect 62 0 61 1;
#X connect 64 0 63 0;
#X connect 65 0 64 0;
#X connect 66 0 65 0;
#X connect 67 0 1 0;
#X connect 68 0 67 1;
#X connect 69 0 1 0;
#X connect 70 0 69 1;
#X connect 71 0 1 0;
#X connect 72 0 71 1;
#X connect 73 0 1 0;
#X connect 74 0 73 1;
#X connect 75 0 1 0;
#X connect 76 0 75 1;
#X connect 77 0 1 0;
#X connect 78 0 77 1;
#X connect 79 0 1 0;
#X connect 80 0 79 1;
#X connect 81 0 1 0;
#X connect 82 0 81 1;
#X connect 83 0 1 0;
#X connect 84 0 83 1;
#X connect 85 0 1 0;
#X connect 86 0 85 1;
#X connect 87 0 1 0;
#X connect 88 0 87 1;
#X connect 89 0 1 0;
#X connect 90 0 89 1;
#X connect 91 0 1 0;
#X connect 92 0 91 1;
#X connect 93 0 4 0;
#X connect 94 0 95 0;
#X connect 95 0 4 0;
#X connect 97 0 101 0;
#X connect 98 0 100 0;
#X connect 98 0 97 0;
#X connect 99 0 13 0;
#X connect 100 0 99 0;
#X connect 101 0 99 0;
#X connect 102 0 106 0;
#X connect 103 0 105 0;
#X connect 103 0 102 0;
#X connect 104 0 0 1;
#X connect 105 0 104 0;
#X connect 106 0 104 0;
#X restore 28 1048 pd supersaw2;

#X obj 26 1077 *~ 0.1;


#N canvas 0 0 1924 1041 supersaw3 0;
#X obj 1478 631 *~;
#X obj 503 557 lop~ 100;
#X obj 54 57 inlet;
#X obj 1478 658 outlet~;
#X floatatom 241 57 5 0 2 0 - - - 36;
#X obj 84 332 phasor~;
#X obj 185 314 phasor~;
#X obj 316 332 phasor~;
#X obj 235 227 * 1;
#X obj 316 227 * -1;
#X obj 185 287 + 1.015;
#X obj 294 287 + 1.015;
#X obj 233 522 loadbang;
#X obj 61 607 snapshot~;
#X floatatom 61 634 5 0 0 0 - - - 0;
#X obj 233 549 tgl 15 0 empty empty empty 17 7 0 10 #fcfcfc #000000 #000000 0 1;
#X obj 233 567 metro 10;
#X obj 185 654 vsl 15 128 200 2000 0 0 empty empty empty 0 -9 0 10 #fcfcfc #000000 #000000 0 1;
#X obj 120 557 osc~ 0.2;
#X obj 418 314 phasor~;
#X obj 549 332 phasor~;
#X obj 418 287 + 1.015;
#X obj 527 287 + 1.015;
#X obj 468 227 * 2;
#X obj 549 227 * -2;
#X obj 646 314 phasor~;
#X obj 777 332 phasor~;
#X obj 646 287 + 1.015;
#X obj 755 287 + 1.015;
#X obj 696 227 * 3;
#X obj 775 227 * -3;
#X obj 877 314 phasor~;
#X obj 1008 332 phasor~;
#X obj 877 287 + 1.015;
#X obj 986 287 + 1.015;
#X obj 1112 314 phasor~;
#X obj 1243 332 phasor~;
#X obj 1112 287 + 1.015;
#X obj 1221 287 + 1.015;
#X obj 1340 314 phasor~;
#X obj 1471 332 phasor~;
#X obj 1340 287 + 1.015;
#X obj 1449 287 + 1.015;
#X obj 1573 314 phasor~;
#X obj 1704 332 phasor~;
#X obj 1573 287 + 1.015;
#X obj 1682 287 + 1.015;
#X obj 1819 314 phasor~;
#X obj 1950 332 phasor~;
#X obj 1819 287 + 1.015;
#X obj 1928 287 + 1.015;
#X obj 927 227 * 4;
#X obj 1006 227 * -4;
#X obj 1162 227 * 5;
#X obj 1241 227 * -5;
#X obj 1390 227 * 6;
#X obj 1469 227 * -6;
#X obj 1623 227 * 7;
#X obj 1702 227 * -7;
#X obj 1869 227 * 8;
#X obj 1948 227 * -9;
#X obj 439 418 *~ 0.8;
#X obj 439 445 r detune_vol;
#X obj 681 91 s detune_vol;
#X floatatom 623 91 5 0 0 0 - - - 0;
#X msg 623 64 0.8;
#X obj 623 37 loadbang;
#X obj 542 418 *~ 0.8;
#X obj 542 445 r detune_vol;
#X obj 656 418 *~ 0.8;
#X obj 656 445 r detune_vol;
#X obj 778 418 *~ 0.8;
#X obj 778 445 r detune_vol;
#X obj 875 418 *~ 0.8;
#X obj 875 445 r detune_vol;
#X obj 999 418 *~ 0.8;
#X obj 1013 418 r detune_vol;
#X obj 1116 418 *~ 0.8;
#X obj 1130 418 r detune_vol;
#X obj 1243 418 *~ 0.8;
#X obj 1243 445 r detune_vol;
#X obj 1344 418 *~ 0.8;
#X obj 1344 445 r detune_vol;
#X obj 1458 418 *~ 0.8;
#X obj 1458 445 r detune_vol;
#X obj 1572 418 *~ 0.8;
#X obj 1572 445 r detune_vol;
#X obj 1699 418 *~ 0.8;
#X obj 1699 445 r detune_vol;
#X obj 1800 418 *~ 0.8;
#X obj 1800 445 r detune_vol;
#X obj 1914 418 *~ 0.8;
#X obj 1914 445 r detune_vol;
#X obj 416 57 hsl 128 50 0 2 0 0 empty empty empty -2 -8 0 10 #fcfcfc #000000 #000000 0 1;
#X obj 152 32 loadbang;
#X msg 152 59 1.3;
#X msg 1145 78 0.5;
#X obj 138 418 del 10;
#X obj 65 421 bng 24 250 50 0 empty empty empty 0 -12 0 16 #fcfcfc #000000 #000000;
#X obj 61 487 line~;
#X msg 61 454 2000 10;
#X msg 155 455 200 300;
#X obj 1374 504 del 10;
#X obj 1301 507 bng 24 250 50 0 empty empty empty 0 -12 0 16 #fcfcfc #000000 #000000;
#X obj 1297 573 line~;
#X msg 1297 540 1 10;
#X msg 1391 541 0 300;
#X connect 0 0 3 0;
#X connect 1 0 0 0;
#X connect 2 0 5 0;
#X connect 2 0 10 0;
#X connect 2 0 11 0;
#X connect 2 0 21 0;
#X connect 2 0 22 0;
#X connect 2 0 27 0;
#X connect 2 0 28 0;
#X connect 2 0 98 0;
#X connect 2 0 103 0;
#X connect 4 0 8 0;
#X connect 4 0 9 0;
#X connect 4 0 23 0;
#X connect 4 0 24 0;
#X connect 4 0 29 0;
#X connect 4 0 30 0;
#X connect 4 0 51 0;
#X connect 4 0 52 0;
#X connect 4 0 53 0;
#X connect 4 0 54 0;
#X connect 4 0 55 0;
#X connect 4 0 56 0;
#X connect 4 0 57 0;
#X connect 4 0 58 0;
#X connect 4 0 59 0;
#X connect 4 0 60 0;
#X connect 5 0 1 0;
#X connect 6 0 1 0;
#X connect 7 0 1 0;
#X connect 8 0 10 1;
#X connect 9 0 11 1;
#X connect 10 0 6 0;
#X connect 11 0 7 0;
#X connect 12 0 15 0;
#X connect 13 0 14 0;
#X connect 13 0 17 0;
#X connect 14 0 1 1;
#X connect 15 0 16 0;
#X connect 16 0 13 0;
#X connect 19 0 61 0;
#X connect 20 0 67 0;
#X connect 21 0 19 0;
#X connect 22 0 20 0;
#X connect 23 0 21 1;
#X connect 24 0 22 1;
#X connect 25 0 69 0;
#X connect 26 0 71 0;
#X connect 27 0 25 0;
#X connect 28 0 26 0;
#X connect 29 0 27 1;
#X connect 30 0 28 1;
#X connect 31 0 73 0;
#X connect 32 0 75 0;
#X connect 33 0 31 0;
#X connect 34 0 32 0;
#X connect 35 0 77 0;
#X connect 36 0 79 0;
#X connect 37 0 35 0;
#X connect 38 0 36 0;
#X connect 39 0 81 0;
#X connect 40 0 83 0;
#X connect 41 0 39 0;
#X connect 42 0 40 0;
#X connect 43 0 85 0;
#X connect 44 0 87 0;
#X connect 45 0 43 0;
#X connect 46 0 44 0;
#X connect 47 0 89 0;
#X connect 48 0 91 0;
#X connect 49 0 47 0;
#X connect 50 0 48 0;
#X connect 51 0 33 1;
#X connect 52 0 34 1;
#X connect 53 0 37 1;
#X connect 54 0 38 1;
#X connect 55 0 41 1;
#X connect 56 0 42 1;
#X connect 57 0 45 1;
#X connect 58 0 46 1;
#X connect 59 0 49 1;
#X connect 60 0 50 1;
#X connect 62 0 61 1;
#X connect 64 0 63 0;
#X connect 65 0 64 0;
#X connect 66 0 65 0;
#X connect 68 0 67 1;
#X connect 70 0 69 1;
#X connect 72 0 71 1;
#X connect 74 0 73 1;
#X connect 76 0 75 1;
#X connect 78 0 77 1;
#X connect 80 0 79 1;
#X connect 82 0 81 1;
#X connect 84 0 83 1;
#X connect 86 0 85 1;
#X connect 88 0 87 1;
#X connect 90 0 89 1;
#X connect 92 0 91 1;
#X connect 93 0 4 0;
#X connect 94 0 95 0;
#X connect 95 0 4 0;
#X connect 97 0 101 0;
#X connect 98 0 100 0;
#X connect 98 0 97 0;
#X connect 99 0 13 0;
#X connect 100 0 99 0;
#X connect 101 0 99 0;
#X connect 102 0 106 0;
#X connect 103 0 105 0;
#X connect 103 0 102 0;
#X connect 104 0 0 1;
#X connect 105 0 104 0;
#X connect 106 0 104 0;
#X restore 236 877 pd supersaw3;
#X obj 254 905 *~ 0.2;

#N canvas 0 0 1924 1041 supersaw3 0;
#X obj 1478 631 *~;
#X obj 503 557 lop~ 100;
#X obj 54 57 inlet;
#X obj 1478 658 outlet~;
#X floatatom 241 57 5 0 2 0 - - - 36;
#X obj 84 332 phasor~;
#X obj 185 314 phasor~;
#X obj 316 332 phasor~;
#X obj 235 227 * 1;
#X obj 316 227 * -1;
#X obj 185 287 + 1.015;
#X obj 294 287 + 1.015;
#X obj 233 522 loadbang;
#X obj 61 607 snapshot~;
#X floatatom 61 634 5 0 0 0 - - - 0;
#X obj 233 549 tgl 15 0 empty empty empty 17 7 0 10 #fcfcfc #000000 #000000 0 1;
#X obj 233 567 metro 10;
#X obj 185 654 vsl 15 128 200 2000 0 0 empty empty empty 0 -9 0 10 #fcfcfc #000000 #000000 0 1;
#X obj 120 557 osc~ 0.2;
#X obj 418 314 phasor~;
#X obj 549 332 phasor~;
#X obj 418 287 + 1.015;
#X obj 527 287 + 1.015;
#X obj 468 227 * 2;
#X obj 549 227 * -2;
#X obj 646 314 phasor~;
#X obj 777 332 phasor~;
#X obj 646 287 + 1.015;
#X obj 755 287 + 1.015;
#X obj 696 227 * 3;
#X obj 775 227 * -3;
#X obj 877 314 phasor~;
#X obj 1008 332 phasor~;
#X obj 877 287 + 1.015;
#X obj 986 287 + 1.015;
#X obj 1112 314 phasor~;
#X obj 1243 332 phasor~;
#X obj 1112 287 + 1.015;
#X obj 1221 287 + 1.015;
#X obj 1340 314 phasor~;
#X obj 1471 332 phasor~;
#X obj 1340 287 + 1.015;
#X obj 1449 287 + 1.015;
#X obj 1573 314 phasor~;
#X obj 1704 332 phasor~;
#X obj 1573 287 + 1.015;
#X obj 1682 287 + 1.015;
#X obj 1819 314 phasor~;
#X obj 1950 332 phasor~;
#X obj 1819 287 + 1.015;
#X obj 1928 287 + 1.015;
#X obj 927 227 * 4;
#X obj 1006 227 * -4;
#X obj 1162 227 * 5;
#X obj 1241 227 * -5;
#X obj 1390 227 * 6;
#X obj 1469 227 * -6;
#X obj 1623 227 * 7;
#X obj 1702 227 * -7;
#X obj 1869 227 * 8;
#X obj 1948 227 * -9;
#X obj 439 418 *~ 0.8;
#X obj 439 445 r detune_vol;
#X obj 681 91 s detune_vol;
#X floatatom 623 91 5 0 0 0 - - - 0;
#X msg 623 64 0.8;
#X obj 623 37 loadbang;
#X obj 542 418 *~ 0.8;
#X obj 542 445 r detune_vol;
#X obj 656 418 *~ 0.8;
#X obj 656 445 r detune_vol;
#X obj 778 418 *~ 0.8;
#X obj 778 445 r detune_vol;
#X obj 875 418 *~ 0.8;
#X obj 875 445 r detune_vol;
#X obj 999 418 *~ 0.8;
#X obj 1013 418 r detune_vol;
#X obj 1116 418 *~ 0.8;
#X obj 1130 418 r detune_vol;
#X obj 1243 418 *~ 0.8;
#X obj 1243 445 r detune_vol;
#X obj 1344 418 *~ 0.8;
#X obj 1344 445 r detune_vol;
#X obj 1458 418 *~ 0.8;
#X obj 1458 445 r detune_vol;
#X obj 1572 418 *~ 0.8;
#X obj 1572 445 r detune_vol;
#X obj 1699 418 *~ 0.8;
#X obj 1699 445 r detune_vol;
#X obj 1800 418 *~ 0.8;
#X obj 1800 445 r detune_vol;
#X obj 1914 418 *~ 0.8;
#X obj 1914 445 r detune_vol;
#X obj 416 57 hsl 128 50 0 2 0 0 empty empty empty -2 -8 0 10 #fcfcfc #000000 #000000 0 1;
#X obj 152 32 loadbang;
#X msg 152 59 1.3;
#X msg 1145 78 0.5;
#X obj 138 418 del 10;
#X obj 65 421 bng 24 250 50 0 empty empty empty 0 -12 0 16 #fcfcfc #000000 #000000;
#X obj 61 487 line~;
#X msg 61 454 2000 10;
#X msg 155 455 200 300;
#X obj 1374 504 del 10;
#X obj 1301 507 bng 24 250 50 0 empty empty empty 0 -12 0 16 #fcfcfc #000000 #000000;
#X obj 1297 573 line~;
#X msg 1297 540 1 10;
#X msg 1391 541 0 300;
#X connect 0 0 3 0;
#X connect 1 0 0 0;
#X connect 2 0 5 0;
#X connect 2 0 10 0;
#X connect 2 0 11 0;
#X connect 2 0 21 0;
#X connect 2 0 22 0;
#X connect 2 0 27 0;
#X connect 2 0 28 0;
#X connect 2 0 98 0;
#X connect 2 0 103 0;
#X connect 4 0 8 0;
#X connect 4 0 9 0;
#X connect 4 0 23 0;
#X connect 4 0 24 0;
#X connect 4 0 29 0;
#X connect 4 0 30 0;
#X connect 4 0 51 0;
#X connect 4 0 52 0;
#X connect 4 0 53 0;
#X connect 4 0 54 0;
#X connect 4 0 55 0;
#X connect 4 0 56 0;
#X connect 4 0 57 0;
#X connect 4 0 58 0;
#X connect 4 0 59 0;
#X connect 4 0 60 0;
#X connect 5 0 1 0;
#X connect 6 0 1 0;
#X connect 7 0 1 0;
#X connect 8 0 10 1;
#X connect 9 0 11 1;
#X connect 10 0 6 0;
#X connect 11 0 7 0;
#X connect 12 0 15 0;
#X connect 13 0 14 0;
#X connect 13 0 17 0;
#X connect 14 0 1 1;
#X connect 15 0 16 0;
#X connect 16 0 13 0;
#X connect 19 0 61 0;
#X connect 20 0 67 0;
#X connect 21 0 19 0;
#X connect 22 0 20 0;
#X connect 23 0 21 1;
#X connect 24 0 22 1;
#X connect 25 0 69 0;
#X connect 26 0 71 0;
#X connect 27 0 25 0;
#X connect 28 0 26 0;
#X connect 29 0 27 1;
#X connect 30 0 28 1;
#X connect 31 0 73 0;
#X connect 32 0 75 0;
#X connect 33 0 31 0;
#X connect 34 0 32 0;
#X connect 35 0 77 0;
#X connect 36 0 79 0;
#X connect 37 0 35 0;
#X connect 38 0 36 0;
#X connect 39 0 81 0;
#X connect 40 0 83 0;
#X connect 41 0 39 0;
#X connect 42 0 40 0;
#X connect 43 0 85 0;
#X connect 44 0 87 0;
#X connect 45 0 43 0;
#X connect 46 0 44 0;
#X connect 47 0 89 0;
#X connect 48 0 91 0;
#X connect 49 0 47 0;
#X connect 50 0 48 0;
#X connect 51 0 33 1;
#X connect 52 0 34 1;
#X connect 53 0 37 1;
#X connect 54 0 38 1;
#X connect 55 0 41 1;
#X connect 56 0 42 1;
#X connect 57 0 45 1;
#X connect 58 0 46 1;
#X connect 59 0 49 1;
#X connect 60 0 50 1;
#X connect 62 0 61 1;
#X connect 64 0 63 0;
#X connect 65 0 64 0;
#X connect 66 0 65 0;
#X connect 68 0 67 1;
#X connect 70 0 69 1;
#X connect 72 0 71 1;
#X connect 74 0 73 1;
#X connect 76 0 75 1;
#X connect 78 0 77 1;
#X connect 80 0 79 1;
#X connect 82 0 81 1;
#X connect 84 0 83 1;
#X connect 86 0 85 1;
#X connect 88 0 87 1;
#X connect 90 0 89 1;
#X connect 92 0 91 1;
#X connect 93 0 4 0;
#X connect 94 0 95 0;
#X connect 95 0 4 0;
#X connect 97 0 101 0;
#X connect 98 0 100 0;
#X connect 98 0 97 0;
#X connect 99 0 13 0;
#X connect 100 0 99 0;
#X connect 101 0 99 0;
#X connect 102 0 106 0;
#X connect 103 0 105 0;
#X connect 103 0 102 0;
#X connect 104 0 0 1;
#X connect 105 0 104 0;
#X connect 106 0 104 0;
#X restore 240 961 pd supersaw3;
#X obj 258 989 *~ 0.2;

#N canvas 0 0 1924 1041 supersaw3 0;
#X obj 1478 631 *~;
#X obj 503 557 lop~ 100;
#X obj 54 57 inlet;
#X obj 1478 658 outlet~;
#X floatatom 241 57 5 0 2 0 - - - 36;
#X obj 84 332 phasor~;
#X obj 185 314 phasor~;
#X obj 316 332 phasor~;
#X obj 235 227 * 1;
#X obj 316 227 * -1;
#X obj 185 287 + 1.015;
#X obj 294 287 + 1.015;
#X obj 233 522 loadbang;
#X obj 61 607 snapshot~;
#X floatatom 61 634 5 0 0 0 - - - 0;
#X obj 233 549 tgl 15 0 empty empty empty 17 7 0 10 #fcfcfc #000000 #000000 0 1;
#X obj 233 567 metro 10;
#X obj 185 654 vsl 15 128 200 2000 0 0 empty empty empty 0 -9 0 10 #fcfcfc #000000 #000000 0 1;
#X obj 120 557 osc~ 0.2;
#X obj 418 314 phasor~;
#X obj 549 332 phasor~;
#X obj 418 287 + 1.015;
#X obj 527 287 + 1.015;
#X obj 468 227 * 2;
#X obj 549 227 * -2;
#X obj 646 314 phasor~;
#X obj 777 332 phasor~;
#X obj 646 287 + 1.015;
#X obj 755 287 + 1.015;
#X obj 696 227 * 3;
#X obj 775 227 * -3;
#X obj 877 314 phasor~;
#X obj 1008 332 phasor~;
#X obj 877 287 + 1.015;
#X obj 986 287 + 1.015;
#X obj 1112 314 phasor~;
#X obj 1243 332 phasor~;
#X obj 1112 287 + 1.015;
#X obj 1221 287 + 1.015;
#X obj 1340 314 phasor~;
#X obj 1471 332 phasor~;
#X obj 1340 287 + 1.015;
#X obj 1449 287 + 1.015;
#X obj 1573 314 phasor~;
#X obj 1704 332 phasor~;
#X obj 1573 287 + 1.015;
#X obj 1682 287 + 1.015;
#X obj 1819 314 phasor~;
#X obj 1950 332 phasor~;
#X obj 1819 287 + 1.015;
#X obj 1928 287 + 1.015;
#X obj 927 227 * 4;
#X obj 1006 227 * -4;
#X obj 1162 227 * 5;
#X obj 1241 227 * -5;
#X obj 1390 227 * 6;
#X obj 1469 227 * -6;
#X obj 1623 227 * 7;
#X obj 1702 227 * -7;
#X obj 1869 227 * 8;
#X obj 1948 227 * -9;
#X obj 439 418 *~ 0.8;
#X obj 439 445 r detune_vol;
#X obj 681 91 s detune_vol;
#X floatatom 623 91 5 0 0 0 - - - 0;
#X msg 623 64 0.8;
#X obj 623 37 loadbang;
#X obj 542 418 *~ 0.8;
#X obj 542 445 r detune_vol;
#X obj 656 418 *~ 0.8;
#X obj 656 445 r detune_vol;
#X obj 778 418 *~ 0.8;
#X obj 778 445 r detune_vol;
#X obj 875 418 *~ 0.8;
#X obj 875 445 r detune_vol;
#X obj 999 418 *~ 0.8;
#X obj 1013 418 r detune_vol;
#X obj 1116 418 *~ 0.8;
#X obj 1130 418 r detune_vol;
#X obj 1243 418 *~ 0.8;
#X obj 1243 445 r detune_vol;
#X obj 1344 418 *~ 0.8;
#X obj 1344 445 r detune_vol;
#X obj 1458 418 *~ 0.8;
#X obj 1458 445 r detune_vol;
#X obj 1572 418 *~ 0.8;
#X obj 1572 445 r detune_vol;
#X obj 1699 418 *~ 0.8;
#X obj 1699 445 r detune_vol;
#X obj 1800 418 *~ 0.8;
#X obj 1800 445 r detune_vol;
#X obj 1914 418 *~ 0.8;
#X obj 1914 445 r detune_vol;
#X obj 416 57 hsl 128 50 0 2 0 0 empty empty empty -2 -8 0 10 #fcfcfc #000000 #000000 0 1;
#X obj 152 32 loadbang;
#X msg 152 59 1.3;
#X msg 1145 78 0.5;
#X obj 138 418 del 10;
#X obj 65 421 bng 24 250 50 0 empty empty empty 0 -12 0 16 #fcfcfc #000000 #000000;
#X obj 61 487 line~;
#X msg 61 454 2000 10;
#X msg 155 455 200 300;
#X obj 1374 504 del 10;
#X obj 1301 507 bng 24 250 50 0 empty empty empty 0 -12 0 16 #fcfcfc #000000 #000000;
#X obj 1297 573 line~;
#X msg 1297 540 1 10;
#X msg 1391 541 0 300;
#X connect 0 0 3 0;
#X connect 1 0 0 0;
#X connect 2 0 5 0;
#X connect 2 0 10 0;
#X connect 2 0 11 0;
#X connect 2 0 21 0;
#X connect 2 0 22 0;
#X connect 2 0 27 0;
#X connect 2 0 28 0;
#X connect 2 0 98 0;
#X connect 2 0 103 0;
#X connect 4 0 8 0;
#X connect 4 0 9 0;
#X connect 4 0 23 0;
#X connect 4 0 24 0;
#X connect 4 0 29 0;
#X connect 4 0 30 0;
#X connect 4 0 51 0;
#X connect 4 0 52 0;
#X connect 4 0 53 0;
#X connect 4 0 54 0;
#X connect 4 0 55 0;
#X connect 4 0 56 0;
#X connect 4 0 57 0;
#X connect 4 0 58 0;
#X connect 4 0 59 0;
#X connect 4 0 60 0;
#X connect 5 0 1 0;
#X connect 6 0 1 0;
#X connect 7 0 1 0;
#X connect 8 0 10 1;
#X connect 9 0 11 1;
#X connect 10 0 6 0;
#X connect 11 0 7 0;
#X connect 12 0 15 0;
#X connect 13 0 14 0;
#X connect 13 0 17 0;
#X connect 14 0 1 1;
#X connect 15 0 16 0;
#X connect 16 0 13 0;
#X connect 19 0 61 0;
#X connect 20 0 67 0;
#X connect 21 0 19 0;
#X connect 22 0 20 0;
#X connect 23 0 21 1;
#X connect 24 0 22 1;
#X connect 25 0 69 0;
#X connect 26 0 71 0;
#X connect 27 0 25 0;
#X connect 28 0 26 0;
#X connect 29 0 27 1;
#X connect 30 0 28 1;
#X connect 31 0 73 0;
#X connect 32 0 75 0;
#X connect 33 0 31 0;
#X connect 34 0 32 0;
#X connect 35 0 77 0;
#X connect 36 0 79 0;
#X connect 37 0 35 0;
#X connect 38 0 36 0;
#X connect 39 0 81 0;
#X connect 40 0 83 0;
#X connect 41 0 39 0;
#X connect 42 0 40 0;
#X connect 43 0 85 0;
#X connect 44 0 87 0;
#X connect 45 0 43 0;
#X connect 46 0 44 0;
#X connect 47 0 89 0;
#X connect 48 0 91 0;
#X connect 49 0 47 0;
#X connect 50 0 48 0;
#X connect 51 0 33 1;
#X connect 52 0 34 1;
#X connect 53 0 37 1;
#X connect 54 0 38 1;
#X connect 55 0 41 1;
#X connect 56 0 42 1;
#X connect 57 0 45 1;
#X connect 58 0 46 1;
#X connect 59 0 49 1;
#X connect 60 0 50 1;
#X connect 62 0 61 1;
#X connect 64 0 63 0;
#X connect 65 0 64 0;
#X connect 66 0 65 0;
#X connect 68 0 67 1;
#X connect 70 0 69 1;
#X connect 72 0 71 1;
#X connect 74 0 73 1;
#X connect 76 0 75 1;
#X connect 78 0 77 1;
#X connect 80 0 79 1;
#X connect 82 0 81 1;
#X connect 84 0 83 1;
#X connect 86 0 85 1;
#X connect 88 0 87 1;
#X connect 90 0 89 1;
#X connect 92 0 91 1;
#X connect 93 0 4 0;
#X connect 94 0 95 0;
#X connect 95 0 4 0;
#X connect 97 0 101 0;
#X connect 98 0 100 0;
#X connect 98 0 97 0;
#X connect 99 0 13 0;
#X connect 100 0 99 0;
#X connect 101 0 99 0;
#X connect 102 0 106 0;
#X connect 103 0 105 0;
#X connect 103 0 102 0;
#X connect 104 0 0 1;
#X connect 105 0 104 0;
#X connect 106 0 104 0;
#X restore 244 1041 pd supersaw3;
#X obj 262 1069 *~ 0.2;
#X obj 956 1137 bng 24 250 50 0 empty empty empty 0 -12 0 16 #fcfcfc #000000 #000000;
#X obj 952 1203 line~;
#X msg 952 1170 0.5 1;
#X obj 1017 1168 del 1;
#X msg 1014 1204 1 100;
#X obj 510 334 loadbang;
#X connect 0 0 1 0;
#X connect 3 0 4 0;
#X connect 5 0 6 0;
#X connect 7 0 8 0;
#X connect 7 0 160 0;
#X connect 8 0 123 0;
#X connect 9 0 46 0;
#X connect 10 0 66 0;
#X connect 11 0 67 0;
#X connect 12 0 117 0;
#X connect 13 0 98 0;
#X connect 17 0 93 0;
#X connect 18 0 19 0;
#X connect 20 0 5 0;
#X connect 21 0 7 0;
#X connect 22 0 2 0;
#X connect 23 0 27 0;
#X connect 26 0 44 0;
#X connect 26 0 47 0;
#X connect 27 0 28 0;
#X connect 27 0 41 0;
#X connect 27 0 42 0;
#X connect 28 0 29 0;
#X connect 29 0 25 0;
#X connect 31 0 35 0;
#X connect 31 0 68 0;
#X connect 32 0 31 0;
#X connect 33 0 35 1;
#X connect 33 0 68 1;
#X connect 34 0 33 0;
#X connect 35 0 36 0;
#X connect 36 0 37 0;
#X connect 37 0 40 0;
#X connect 39 0 31 1;
#X connect 39 0 33 1;
#X connect 39 0 94 0;
#X connect 43 0 27 1;
#X connect 44 0 49 1;
#X connect 44 0 27 1;
#X connect 45 0 49 0;
#X connect 47 0 43 0;
#X connect 48 0 50 0;
#X connect 49 0 47 0;
#X connect 50 0 26 0;
#X connect 52 0 59 0;
#X connect 52 0 60 0;
#X connect 53 0 54 0;
#X connect 53 0 167 0;
#X connect 54 0 55 0;
#X connect 55 0 65 0;
#X connect 58 0 53 1;
#X connect 59 0 62 1;
#X connect 59 0 53 1;
#X connect 60 0 58 0;
#X connect 61 0 164 0;
#X connect 62 0 60 0;
#X connect 63 0 62 0;
#X connect 64 0 53 0;
#X connect 68 0 30 0;
#X connect 68 1 30 1;
#X connect 72 0 73 0;
#X connect 74 0 75 0;
#X connect 77 0 84 0;
#X connect 77 0 85 0;
#X connect 78 0 79 0;
#X connect 78 0 81 0;
#X connect 78 0 82 0;
#X connect 79 0 80 0;
#X connect 80 0 90 0;
#X connect 83 0 78 1;
#X connect 84 0 87 1;
#X connect 84 0 78 1;
#X connect 85 0 83 0;
#X connect 86 0 124 0;
#X connect 87 0 85 0;
#X connect 88 0 87 0;
#X connect 89 0 78 0;
#X connect 91 0 74 0;
#X connect 91 0 147 0;
#X connect 91 0 148 0;
#X connect 91 1 188 0;
#X connect 91 1 198 0;
#X connect 91 2 191 0;
#X connect 91 2 201 0;
#X connect 91 3 194 0;
#X connect 91 3 204 0;
#X connect 93 0 3 0;
#X connect 95 0 165 0;
#X connect 96 0 97 0;
#X connect 97 0 72 0;
#X connect 100 0 107 0;
#X connect 100 0 108 0;
#X connect 101 0 102 0;
#X connect 101 0 104 0;
#X connect 101 0 105 0;
#X connect 101 0 161 0;
#X connect 102 0 103 0;
#X connect 103 0 120 0;
#X connect 106 0 101 1;
#X connect 107 0 110 1;
#X connect 107 0 101 1;
#X connect 108 0 106 0;
#X connect 109 0 111 0;
#X connect 110 0 108 0;
#X connect 111 0 100 0;
#X connect 113 0 114 0;
#X connect 114 0 176 0;
#X connect 115 0 177 0;
#X connect 116 0 115 0;
#X connect 118 0 110 0;
#X connect 119 0 101 0;
#X connect 124 0 77 0;
#X connect 125 0 0 0;
#X connect 129 0 136 0;
#X connect 129 0 137 0;
#X connect 130 0 131 0;
#X connect 130 0 133 0;
#X connect 130 0 134 0;
#X connect 131 0 132 0;
#X connect 132 0 143 0;
#X connect 135 0 130 1;
#X connect 136 0 139 1;
#X connect 136 0 130 1;
#X connect 137 0 135 0;
#X connect 138 0 140 0;
#X connect 139 0 137 0;
#X connect 140 0 129 0;
#X connect 141 0 139 0;
#X connect 142 0 130 0;
#X connect 144 0 145 0;
#X connect 147 0 159 0;
#X connect 148 0 150 0;
#X connect 150 0 149 0;
#X connect 151 0 159 1;
#X connect 151 0 199 1;
#X connect 151 0 202 1;
#X connect 151 0 205 1;
#X connect 152 0 151 0;
#X connect 153 0 154 0;
#X connect 154 0 152 0;
#X connect 155 0 150 1;
#X connect 155 0 190 1;
#X connect 155 0 193 1;
#X connect 155 0 196 1;
#X connect 156 0 155 0;
#X connect 157 0 158 0;
#X connect 158 0 156 0;
#X connect 159 0 69 0;
#X connect 159 0 162 0;
#X connect 161 0 104 0;
#X connect 161 1 105 0;
#X connect 162 0 163 0;
#X connect 162 1 163 0;
#X connect 164 0 52 0;
#X connect 165 0 39 0;
#X connect 166 0 206 0;
#X connect 167 0 56 0;
#X connect 167 0 57 0;
#X connect 168 0 126 0;
#X connect 169 0 168 0;
#X connect 172 0 18 0;
#X connect 173 0 178 0;
#X connect 174 0 180 0;
#X connect 175 0 182 0;
#X connect 176 0 175 0;
#X connect 177 0 179 0;
#X connect 178 0 182 1;
#X connect 179 0 184 0;
#X connect 180 0 184 1;
#X connect 181 0 185 0;
#X connect 182 0 181 0;
#X connect 183 0 186 0;
#X connect 184 0 183 0;
#X connect 187 0 13 0;
#X connect 188 0 190 0;
#X connect 190 0 189 0;
#X connect 191 0 193 0;
#X connect 193 0 192 0;
#X connect 194 0 196 0;
#X connect 196 0 195 0;
#X connect 198 0 199 0;
#X connect 199 0 197 0;
#X connect 201 0 202 0;
#X connect 202 0 200 0;
#X connect 204 0 205 0;
#X connect 205 0 203 0;
#X connect 206 0 208 0;
#X connect 206 0 209 0;
#X connect 207 0 167 1;
#X connect 208 0 207 0;
#X connect 209 0 210 0;
#X connect 210 0 207 0;
#X connect 211 0 9 0;
#X connect 211 0 10 0;
#X connect 211 0 11 0;
#X connect 211 0 12 0;
#X connect 211 0 144 0;
#X coords 0 0 1 1 85 60 0;
