#N canvas 25 0 1920 997 16;
#X obj 16 37 tgl 15 0 empty empty empty 17 7 0 10 #fcfcfc #000000 #000000 0 1;
#X msg 16 60 \; pd dsp \$1;
#X floatatom 323 380 5 0 0 2 BPM - - 36;
#X obj 324 439 s BPM;
#N canvas 110 533 1146 518 random_notes_euclidean 0;
#N canvas 870 87 992 859 euclidean_rhythms 0;
#X obj 93 248 + 0;
#X obj 93 279 *;
#X floatatom 230 327 5 0 0 1 Notes - - 0;
#X obj 93 309 % 16;
#X obj 244 511 bng 15 250 50 0 empty empty empty 17 7 0 10 #fcfcfc #000000 #000000;
#X obj 392 537 bng 15 250 50 0 empty empty empty 17 7 0 10 #fcfcfc #000000 #000000;
#X obj 93 197 t f f;
#X obj 93 521 f;
#X floatatom 93 556 5 0 0 0 - - - 0;
#X msg 409 144 16;
#X floatatom 409 175 5 0 0 1 Steps - - 0;
#X obj 96 12 inlet;
#X obj 230 15 inlet;
#X obj 93 596 outlet;
#X obj 285 260 loadbang;
#X msg 285 288 8;
#X obj 409 114 loadbang;
#N canvas 573 454 852 560 counter 0;
#X obj 23 17 inlet;
#X obj 22 49 tgl 15 0 empty empty empty 17 7 0 10 #fcfcfc #000000 #000000 0 1;
#X obj 22 69 t f b;
#X obj 22 109 metro 0.25 120 permin;
#X obj 22 184 f;
#X obj 22 213 % 16;
#X obj 22 242 outlet;
#X obj 61 184 + 1;
#X msg 49 142 0;
#X obj 102 43 r BPM;
#X connect 0 0 1 0;
#X connect 1 0 2 0;
#X connect 2 0 3 0;
#X connect 2 1 8 0;
#X connect 3 0 4 0;
#X connect 4 0 5 0;
#X connect 4 0 7 0;
#X connect 5 0 6 0;
#X connect 7 0 4 1;
#X connect 8 0 4 1;
#X restore 95 70 pd counter;
#X obj 95 50 tgl 15 0 empty empty empty 17 7 0 10 #fcfcfc #000000 #000000 0 1;
#X obj 95 141 hradio 15 1 0 16 empty empty empty 0 -8 0 10 #fcfcfc #000000 #000000 0;
#X obj 93 342 -;
#X floatatom 92 369 5 0 0 0 - - - 0;
#X obj 93 460 sel 1 2 3 4 5 6 7 8 9 10 11 12 13 14 15 16;
#X floatatom 549 476 4 0 0 0 - - - 0;
#X connect 0 0 1 0;
#X connect 1 0 3 0;
#X connect 2 0 1 1;
#X connect 2 0 20 1;
#X connect 3 0 20 0;
#X connect 5 0 7 0;
#X connect 6 0 0 0;
#X connect 6 1 7 1;
#X connect 7 0 8 0;
#X connect 8 0 13 0;
#X connect 9 0 10 0;
#X connect 11 0 18 0;
#X connect 12 0 2 0;
#X connect 14 0 15 0;
#X connect 15 0 2 0;
#X connect 16 0 9 0;
#X connect 17 0 19 0;
#X connect 18 0 17 0;
#X connect 19 0 6 0;
#X connect 20 0 21 0;
#X connect 21 0 22 0;
#X connect 22 0 4 0;
#X connect 22 1 4 0;
#X connect 22 2 4 0;
#X connect 22 3 4 0;
#X connect 22 4 4 0;
#X connect 22 5 4 0;
#X connect 22 6 4 0;
#X connect 22 7 4 0;
#X connect 22 8 4 0;
#X connect 22 9 4 0;
#X connect 22 10 4 0;
#X connect 22 11 4 0;
#X connect 22 12 4 0;
#X connect 22 14 4 0;
#X connect 22 15 4 0;
#X connect 22 16 5 0;
#X connect 22 16 23 0;
#X restore 16 103 pd euclidean_rhythms;
#X obj 16 66 tgl 15 0 empty empty empty 17 7 0 10 #fcfcfc #000000 #000000 0 1;
#X floatatom 212 71 5 0 0 0 - - - 0;
#X floatatom 19 155 5 0 0 0 - - - 0;
#X obj 19 225 bng 15 250 50 0 empty empty empty 17 7 0 10 #fcfcfc #000000 #000000;
#X obj 18 188 sel 0;
#X obj 212 9 random 16;
#X obj 211 42 + 1;
#X obj 101 153 t b f;
#X floatatom 149 223 5 0 0 0 - - - 0;
#N canvas 521 366 980 421 random_note 0;
#X msg 45 103 60;
#X floatatom 45 159 5 0 0 0 - - - 0;
#X obj 45 308 mtof;
#X obj 45 252 +;
#X floatatom 442 110 5 0 0 0 - - - 0;
#X obj 45 67 bng 15 250 50 0 empty empty empty 17 7 0 10 #fcfcfc #000000 #000000;
#X obj 442 81 random 7;
#X obj 442 137 sel 0 1 2 3 4 5 6;
#X msg 442 188 0;
#X msg 489 189 2;
#X msg 535 189 4;
#X msg 582 189 5;
#X msg 629 189 7;
#X msg 675 189 9;
#X msg 722 189 11;
#X floatatom 442 248 5 0 0 0 - - - 0;
#X floatatom 45 339 5 0 0 0 - - - 0;
#X obj 45 26 inlet;
#X obj 45 371 outlet;
#X floatatom 126 139 5 0 0 0 - - - 0;
#X obj 124 101 random 3;
#X obj 124 185 sel 0 1;
#X obj 47 210 +;
#X msg 123 217 -12;
#X msg 170 218 12;
#X floatatom 101 281 5 0 0 0 - - - 0;
#X connect 0 0 1 0;
#X connect 1 0 22 0;
#X connect 2 0 16 0;
#X connect 3 0 2 0;
#X connect 3 0 25 0;
#X connect 4 0 7 0;
#X connect 5 0 6 0;
#X connect 5 0 0 0;
#X connect 5 0 20 0;
#X connect 6 0 4 0;
#X connect 7 0 8 0;
#X connect 7 1 9 0;
#X connect 7 2 10 0;
#X connect 7 3 11 0;
#X connect 7 4 12 0;
#X connect 7 5 13 0;
#X connect 7 6 14 0;
#X connect 8 0 15 0;
#X connect 9 0 15 0;
#X connect 10 0 15 0;
#X connect 11 0 15 0;
#X connect 12 0 15 0;
#X connect 13 0 15 0;
#X connect 14 0 15 0;
#X connect 15 0 3 1;
#X connect 16 0 18 0;
#X connect 17 0 5 0;
#X connect 19 0 21 0;
#X connect 20 0 19 0;
#X connect 21 0 23 0;
#X connect 21 1 24 0;
#X connect 22 0 3 0;
#X connect 23 0 22 1;
#X connect 24 0 22 1;
#X restore 148 189 pd random_note;
#X obj 15 11 inlet;
#X obj 149 261 outlet;
#X connect 0 0 3 0;
#X connect 0 0 8 0;
#X connect 1 0 0 0;
#X connect 2 0 0 1;
#X connect 3 0 5 0;
#X connect 4 0 6 0;
#X connect 5 0 4 0;
#X connect 6 0 7 0;
#X connect 7 0 2 0;
#X connect 8 1 10 0;
#X connect 9 0 12 0;
#X connect 10 0 9 0;
#X connect 11 0 1 0;
#X restore 20 224 pd random_notes_euclidean;
#N canvas 647 185 881 988 clave 0;
#X obj 65 19 inlet;
#X floatatom 66 163 5 0 0 0 - - - 0;
#X obj 66 191 osc~;
#X obj 66 220 *~;
#X obj 67 298 outlet~;
#X obj 65 53 ftom;
#X obj 66 89 + 12;
#X obj 70 127 mtof;
#X msg 144 169 0.7 5;
#X msg 218 169 0 200;
#X obj 221 133 del 10;
#X obj 148 136 bng 24 250 50 0 empty empty empty 0 -12 0 16 #fcfcfc #000000 #000000;
#X obj 144 202 line~;
#X connect 0 0 5 0;
#X connect 1 0 2 0;
#X connect 1 0 11 0;
#X connect 2 0 3 0;
#X connect 3 0 4 0;
#X connect 5 0 6 0;
#X connect 6 0 7 0;
#X connect 7 0 1 0;
#X connect 8 0 12 0;
#X connect 9 0 12 0;
#X connect 10 0 9 0;
#X connect 11 0 8 0;
#X connect 11 0 10 0;
#X connect 12 0 3 1;
#X restore 16 261 pd clave;
#X obj 564 379 tgl 50 0 empty empty empty 17 7 0 10 #fcfcfc #000000 #000000 0 1;
#X obj 695 384 tgl 50 0 empty empty empty 17 7 0 10 #fcfcfc #000000 #000000 0 1;
#X obj 824 388 tgl 50 0 empty empty empty 17 7 0 10 #fcfcfc #000000 #000000 0 1;
#X obj 952 380 tgl 50 0 empty empty empty 17 7 0 10 #fcfcfc #000000 #000000 0 1;
#X obj 1149 485 tgl 50 0 empty empty empty 17 7 0 10 #fcfcfc #000000 #000000 0 1;
#X obj 698 528 tgl 50 0 empty empty empty 17 7 0 10 #fcfcfc #000000 #000000 0 1;
#X obj 830 537 tgl 50 0 empty empty empty 17 7 0 10 #fcfcfc #000000 #000000 0 1;
#X obj 956 539 tgl 50 0 empty empty empty 17 7 0 10 #fcfcfc #000000 #000000 0 1;
#X obj 230 381 loadbang;
#X obj 329 511 tgl 50 0 empty empty Start\ All 0 -10 0 20 #fcfcfc #000000 #000000 0 1;
#X obj 325 570 s start;
#X obj 19 194 r start;
#X obj 785 843 dac~;
#X obj 703 692 *~;
#X obj 869 697 *~;
#X obj 703 755 +~;
#X obj 642 745 vu 15 120 vuM empty -1 -8 0 10 #404040 #000000 1 0;
#X obj 619 745 vsl 15 120 0 1 0 0 empty empty empty 0 -9 0 10 #fcfcfc #000000 #000000 0 1;
#X obj 565 437 s mute1;
#X obj 697 440 s mute2;
#X obj 824 447 s mute3;
#N canvas 113 473 784 496 effects 0;
#X obj 53 41 inlet~;
#X obj 608 37 inlet~;
#X obj 54 273 outlet~;
#X obj 534 280 outlet~;
#X obj 185 255 lop~ 100;
#X obj 388 250 lop~ 100;
#X obj 280 200 r lop_global;
#X obj 226 59 sel 1;
#X obj 180 216 *~;
#X msg 265 94 0;
#X msg 209 95 1;
#X obj 466 207 *~;
#X obj 68 163 *~;
#X msg 154 93 0;
#X msg 319 92 1;
#X obj 630 187 *~;
#X obj 225 24 r lop_on;
#X obj 383 35 loadbang;
#X connect 0 0 12 0;
#X connect 0 0 8 0;
#X connect 1 0 15 0;
#X connect 1 0 11 0;
#X connect 4 0 2 0;
#X connect 5 0 3 0;
#X connect 6 0 5 1;
#X connect 6 0 4 1;
#X connect 7 0 10 0;
#X connect 7 0 13 0;
#X connect 7 1 9 0;
#X connect 7 1 14 0;
#X connect 8 0 4 0;
#X connect 9 0 8 1;
#X connect 9 0 11 1;
#X connect 10 0 8 1;
#X connect 10 0 11 1;
#X connect 11 0 5 0;
#X connect 12 0 2 0;
#X connect 13 0 12 1;
#X connect 13 0 15 1;
#X connect 14 0 12 1;
#X connect 14 0 15 1;
#X connect 15 0 3 0;
#X connect 16 0 7 0;
#X restore 896 774 pd effects;
#X obj 1076 375 vsl 50 200 100 5000 0 0 lop_global empty LP 5 -15 0 30 #fcfcfc #000000 #000000 0 1;
#X floatatom 1076 608 5 0 0 0 - - - 0;
#X msg 230 410 160;
#X floatatom 605 703 5 0 0 0 - - - 24;
#X obj 560 673 loadbang;
#X obj 1158 382 loadbang;
#X obj 1150 541 s lop_on;
#X obj 308 817 vu 15 120 vu4 empty -1 -8 0 10 #404040 #000000 1 0;
#X obj 357 815 vsl 15 120 0 1 0 0 empty empty empty 0 -9 0 10 #fcfcfc #000000 #000000 0 1;
#X obj 385 823 *~;
#X obj 308 770 line~;
#X floatatom 439 720 5 0 0 0 - - - 24;
#X msg 308 743 \$1 500;
#X obj 394 690 loadbang;
#X obj 308 716 * 1;
#X obj 615 56 r melody_hits;
#X obj 617 102 bng 50 250 50 0 empty empty empty 17 7 0 10 #fcfcfc #000000 #000000;
#X obj 826 107 bng 50 250 50 0 empty empty empty 17 7 0 10 #fcfcfc #000000 #000000;
#X obj 826 49 r kicks;
#X obj 951 448 s mute4;
#X obj 308 690 r mute4;
#X obj 15 2 loadbang;
#X text 380 647 Arp, f 7;
#X obj 566 523 tgl 50 0 empty empty empty 17 7 0 10 #fcfcfc #000000 #000000 0 1;
#X obj 567 581 s mute5;
#X obj 150 303 s melody_hits;
#X msg 560 705 0.45;
#X obj 686 152 r mute1;
#X obj 898 158 r mute4;
#X floatatom 613 206 5 0 0 0 - - - 0;
#X obj 615 168 tgl 24 0 empty empty empty 0 -12 0 16 #fcfcfc #000000 #000000 0 1;
#X obj 827 169 tgl 24 0 empty empty empty 0 -12 0 16 #fcfcfc #000000 #000000 0 1;
#X floatatom 683 206 5 0 0 0 - - - 0;
#X floatatom 824 205 5 0 0 0 - - - 0;
#X floatatom 894 205 5 0 0 0 - - - 0;
#X floatatom 686 241 5 0 0 0 - - - 0;
#X obj 614 255 *;
#X floatatom 897 237 5 0 0 0 - - - 0;
#X obj 825 251 *;
#X obj 686 275 s hits_melody;
#X obj 898 273 s hits_kicks;
#X obj 510 334 loadbang;
#X msg 394 722 0.2;
#X msg 1158 411 5000;
#X connect 0 0 1 0;
#X connect 2 0 3 0;
#X connect 4 0 5 0;
#X connect 4 0 53 0;
#X connect 5 0 37 0;
#X connect 6 0 24 0;
#X connect 7 0 25 0;
#X connect 8 0 26 0;
#X connect 9 0 47 0;
#X connect 10 0 34 0;
#X connect 14 0 30 0;
#X connect 15 0 16 0;
#X connect 17 0 4 0;
#X connect 19 0 21 0;
#X connect 19 0 27 0;
#X connect 20 0 21 1;
#X connect 20 0 27 1;
#X connect 23 0 19 1;
#X connect 23 0 20 1;
#X connect 23 0 31 0;
#X connect 27 0 18 0;
#X connect 27 1 18 1;
#X connect 28 0 29 0;
#X connect 30 0 2 0;
#X connect 32 0 54 0;
#X connect 33 0 71 0;
#X connect 33 0 10 0;
#X connect 36 0 39 0;
#X connect 36 0 40 0;
#X connect 37 0 19 0;
#X connect 37 0 20 0;
#X connect 38 0 37 1;
#X connect 39 0 42 1;
#X connect 39 0 37 1;
#X connect 40 0 38 0;
#X connect 41 0 70 0;
#X connect 42 0 40 0;
#X connect 43 0 44 0;
#X connect 44 0 58 0;
#X connect 45 0 59 0;
#X connect 46 0 45 0;
#X connect 48 0 42 0;
#X connect 49 0 0 0;
#X connect 51 0 52 0;
#X connect 54 0 23 0;
#X connect 55 0 60 0;
#X connect 56 0 62 0;
#X connect 57 0 64 0;
#X connect 58 0 57 0;
#X connect 59 0 61 0;
#X connect 60 0 64 1;
#X connect 61 0 66 0;
#X connect 62 0 66 1;
#X connect 63 0 67 0;
#X connect 64 0 63 0;
#X connect 65 0 68 0;
#X connect 66 0 65 0;
#X connect 69 0 6 0;
#X connect 69 0 7 0;
#X connect 69 0 8 0;
#X connect 69 0 9 0;
#X connect 69 0 51 0;
#X connect 69 0 15 0;
#X connect 70 0 36 0;
#X connect 71 0 28 0;
#X coords 0 0 1 1 85 60 0;
