#N canvas 25 0 1920 997 16;
#N canvas 647 185 881 988 clave 1;
#X obj 65 19 inlet;
#X floatatom 66 163 5 0 0 0 - - - 0;
#X obj 66 191 osc~;
#X obj 66 220 *~;
#X obj 67 298 outlet~;
#X obj 65 53 ftom;
#X obj 66 89 + 12;
#X obj 70 127 mtof;
#X msg 144 169 0.7 5;
#X msg 218 169 0 200;
#X obj 221 133 del 10;
#X obj 148 136 bng 24 250 50 0 empty empty empty 0 -12 0 16 #fcfcfc #000000 #000000;
#X obj 144 202 line~;
#X connect 0 0 5 0;
#X connect 1 0 2 0;
#X connect 1 0 11 0;
#X connect 2 0 3 0;
#X connect 3 0 4 0;
#X connect 5 0 6 0;
#X connect 6 0 7 0;
#X connect 7 0 1 0;
#X connect 8 0 12 0;
#X connect 9 0 12 0;
#X connect 10 0 9 0;
#X connect 11 0 8 0;
#X connect 11 0 10 0;
#X connect 12 0 3 1;
#X restore 753 454 pd clave;
#X obj 564 379 tgl 50 0 empty empty empty 17 7 0 10 #fcfcfc #000000 #000000 0 1;
#X obj 329 511 tgl 50 0 empty empty Start\ All 0 -10 0 20 #fcfcfc #000000 #000000 0 1;
#X obj 325 570 s start;
#X obj 1144 129 r start;
#X obj 747 523 dac~;
#X obj 565 437 s mute1;
#X obj 510 334 loadbang;
#N canvas 870 87 992 859 euclidean_rhythms 1;
#X obj 93 248 + 0;
#X obj 93 279 *;
#X floatatom 230 327 5 0 0 1 Notes - - 0;
#X obj 93 309 % 16;
#X obj 244 511 bng 15 250 50 0 empty empty empty 17 7 0 10 #fcfcfc #000000 #000000;
#X obj 392 537 bng 15 250 50 0 empty empty empty 17 7 0 10 #fcfcfc #000000 #000000;
#X obj 93 197 t f f;
#X obj 93 521 f;
#X floatatom 93 556 5 0 0 0 - - - 0;
#X msg 409 144 16;
#X floatatom 409 175 5 0 0 1 Steps - - 0;
#X obj 96 12 inlet;
#X obj 230 15 inlet;
#X obj 93 596 outlet;
#X obj 285 260 loadbang;
#X msg 285 288 8;
#X obj 409 114 loadbang;
#N canvas 573 454 852 560 counter 0;
#X obj 23 17 inlet;
#X obj 22 49 tgl 15 0 empty empty empty 17 7 0 10 #fcfcfc #000000 #000000 0 1;
#X obj 22 69 t f b;
#X obj 22 109 metro 0.25 120 permin;
#X obj 22 184 f;
#X obj 22 213 % 16;
#X obj 22 242 outlet;
#X obj 61 184 + 1;
#X msg 49 142 0;
#X obj 102 43 r BPM;
#X connect 0 0 1 0;
#X connect 1 0 2 0;
#X connect 2 0 3 0;
#X connect 2 1 8 0;
#X connect 3 0 4 0;
#X connect 4 0 5 0;
#X connect 4 0 7 0;
#X connect 5 0 6 0;
#X connect 7 0 4 1;
#X connect 8 0 4 1;
#X restore 95 70 pd counter;
#X obj 95 50 tgl 15 0 empty empty empty 17 7 0 10 #fcfcfc #000000 #000000 0 1;
#X obj 95 141 hradio 15 1 0 16 empty empty empty 0 -8 0 10 #fcfcfc #000000 #000000 0;
#X obj 93 342 -;
#X floatatom 92 369 5 0 0 0 - - - 0;
#X obj 93 460 sel 1 2 3 4 5 6 7 8 9 10 11 12 13 14 15 16;
#X floatatom 549 476 4 0 0 0 - - - 0;
#X connect 0 0 1 0;
#X connect 1 0 3 0;
#X connect 2 0 1 1;
#X connect 2 0 20 1;
#X connect 3 0 20 0;
#X connect 5 0 7 0;
#X connect 6 0 0 0;
#X connect 6 1 7 1;
#X connect 7 0 8 0;
#X connect 8 0 13 0;
#X connect 9 0 10 0;
#X connect 11 0 18 0;
#X connect 12 0 2 0;
#X connect 14 0 15 0;
#X connect 15 0 2 0;
#X connect 16 0 9 0;
#X connect 17 0 19 0;
#X connect 18 0 17 0;
#X connect 19 0 6 0;
#X connect 20 0 21 0;
#X connect 21 0 22 0;
#X connect 22 0 4 0;
#X connect 22 1 4 0;
#X connect 22 2 4 0;
#X connect 22 3 4 0;
#X connect 22 4 4 0;
#X connect 22 5 4 0;
#X connect 22 6 4 0;
#X connect 22 7 4 0;
#X connect 22 8 4 0;
#X connect 22 9 4 0;
#X connect 22 10 4 0;
#X connect 22 11 4 0;
#X connect 22 12 4 0;
#X connect 22 14 4 0;
#X connect 22 15 4 0;
#X connect 22 16 5 0;
#X connect 22 16 23 0;
#X restore 759 248 pd euclidean_rhythms;
#X floatatom 955 216 5 0 0 0 - - - 0;
#X floatatom 762 300 5 0 0 0 - - - 0;
#X obj 762 370 bng 15 250 50 0 empty empty empty 17 7 0 10 #fcfcfc #000000 #000000;
#X obj 761 333 sel 0;
#X obj 955 154 random 16;
#X obj 954 187 + 1;
#X obj 844 298 t b f;
#X floatatom 892 368 5 0 0 0 - - - 0;
#N canvas 521 366 980 421 random_note 0;
#X msg 45 103 60;
#X floatatom 45 159 5 0 0 0 - - - 0;
#X obj 45 308 mtof;
#X obj 45 252 +;
#X floatatom 442 110 5 0 0 0 - - - 0;
#X obj 45 67 bng 15 250 50 0 empty empty empty 17 7 0 10 #fcfcfc #000000 #000000;
#X obj 442 81 random 7;
#X obj 442 137 sel 0 1 2 3 4 5 6;
#X msg 442 188 0;
#X msg 489 189 2;
#X msg 535 189 4;
#X msg 582 189 5;
#X msg 629 189 7;
#X msg 675 189 9;
#X msg 722 189 11;
#X floatatom 442 248 5 0 0 0 - - - 0;
#X floatatom 45 339 5 0 0 0 - - - 0;
#X obj 45 26 inlet;
#X obj 45 371 outlet;
#X floatatom 126 139 5 0 0 0 - - - 0;
#X obj 124 101 random 3;
#X obj 124 185 sel 0 1;
#X obj 47 210 +;
#X msg 123 217 -12;
#X msg 170 218 12;
#X floatatom 101 281 5 0 0 0 - - - 0;
#X connect 0 0 1 0;
#X connect 1 0 22 0;
#X connect 2 0 16 0;
#X connect 3 0 2 0;
#X connect 3 0 25 0;
#X connect 4 0 7 0;
#X connect 5 0 6 0;
#X connect 5 0 0 0;
#X connect 5 0 20 0;
#X connect 6 0 4 0;
#X connect 7 0 8 0;
#X connect 7 1 9 0;
#X connect 7 2 10 0;
#X connect 7 3 11 0;
#X connect 7 4 12 0;
#X connect 7 5 13 0;
#X connect 7 6 14 0;
#X connect 8 0 15 0;
#X connect 9 0 15 0;
#X connect 10 0 15 0;
#X connect 11 0 15 0;
#X connect 12 0 15 0;
#X connect 13 0 15 0;
#X connect 14 0 15 0;
#X connect 15 0 3 1;
#X connect 16 0 18 0;
#X connect 17 0 5 0;
#X connect 19 0 21 0;
#X connect 20 0 19 0;
#X connect 21 0 23 0;
#X connect 21 1 24 0;
#X connect 22 0 3 0;
#X connect 23 0 22 1;
#X connect 24 0 22 1;
#X restore 891 334 pd random_note;
#X obj 1143 363 + 0;
#X obj 1143 394 *;
#X floatatom 1280 442 5 0 0 1 Notes - - 0;
#X obj 1143 424 % 16;
#X obj 1294 626 bng 15 250 50 0 empty empty empty 17 7 0 10 #fcfcfc #000000 #000000;
#X obj 1442 652 bng 15 250 50 0 empty empty empty 17 7 0 10 #fcfcfc #000000 #000000;
#X obj 1143 312 t f f;
#X obj 1143 636 f;
#X floatatom 1143 671 5 0 0 0 - - - 0;
#X obj 1335 375 loadbang;
#X msg 1335 403 8;
#N canvas 573 454 852 560 counter 0;
#X obj 23 17 inlet;
#X obj 22 49 tgl 15 0 empty empty empty 17 7 0 10 #fcfcfc #000000 #000000 0 1;
#X obj 22 69 t f b;
#X obj 22 109 metro 0.25 120 permin;
#X obj 22 184 f;
#X obj 22 213 % 16;
#X obj 22 242 outlet;
#X obj 61 184 + 1;
#X msg 49 142 0;
#X obj 102 43 r BPM;
#X connect 0 0 1 0;
#X connect 1 0 2 0;
#X connect 2 0 3 0;
#X connect 2 1 8 0;
#X connect 3 0 4 0;
#X connect 4 0 5 0;
#X connect 4 0 7 0;
#X connect 5 0 6 0;
#X connect 7 0 4 1;
#X connect 8 0 4 1;
#X restore 1145 185 pd counter;
#X obj 1145 165 tgl 15 0 empty empty empty 17 7 0 10 #fcfcfc #000000 #000000 0 1;
#X obj 1145 256 hradio 15 1 0 16 empty empty empty 0 -8 0 10 #fcfcfc #000000 #000000 0;
#X obj 1143 457 -;
#X floatatom 1142 484 5 0 0 0 - - - 0;
#X obj 1143 575 sel 1 2 3 4 5 6 7 8 9 10 11 12 13 14 15 16;
#X floatatom 1599 591 4 0 0 0 - - - 0;
#X connect 0 0 5 0;
#X connect 0 0 5 1;
#X connect 1 0 6 0;
#X connect 2 0 3 0;
#X connect 4 0 30 0;
#X connect 7 0 1 0;
#X connect 7 0 2 0;
#X connect 9 0 8 1;
#X connect 9 0 20 0;
#X connect 10 0 12 0;
#X connect 11 0 13 0;
#X connect 12 0 11 0;
#X connect 13 0 14 0;
#X connect 14 0 9 0;
#X connect 15 1 17 0;
#X connect 16 0 0 0;
#X connect 17 0 16 0;
#X connect 18 0 19 0;
#X connect 19 0 21 0;
#X connect 20 0 19 1;
#X connect 20 0 32 1;
#X connect 21 0 32 0;
#X connect 23 0 25 0;
#X connect 24 0 18 0;
#X connect 24 1 25 1;
#X connect 25 0 26 0;
#X connect 26 0 12 0;
#X connect 26 0 15 0;
#X connect 27 0 28 0;
#X connect 28 0 20 0;
#X connect 29 0 31 0;
#X connect 30 0 29 0;
#X connect 31 0 24 0;
#X connect 32 0 33 0;
#X connect 33 0 34 0;
#X connect 34 0 22 0;
#X connect 34 1 22 0;
#X connect 34 2 22 0;
#X connect 34 3 22 0;
#X connect 34 4 22 0;
#X connect 34 5 22 0;
#X connect 34 6 22 0;
#X connect 34 7 22 0;
#X connect 34 8 22 0;
#X connect 34 9 22 0;
#X connect 34 10 22 0;
#X connect 34 11 22 0;
#X connect 34 12 22 0;
#X connect 34 14 22 0;
#X connect 34 15 22 0;
#X connect 34 16 23 0;
#X connect 34 16 35 0;
#X coords 0 0 1 1 85 60 0;
