#N canvas 25 0 1920 997 16;
#N canvas 164 143 1657 865 drum_machine 0;
#X msg 128 137 1;
#X floatatom 41 218 5 0 0 0 - - - 0;
#X obj 42 244 + 0.5;
#X obj 42 273 int;
#X floatatom 42 302 5 0 0 0 - - - 0;
#X obj 41 337 sel 0 1 2 3 4 5 6;
#N canvas 374 391 1107 650 kick 0;
#X obj 17 9 inlet;
#X obj 16 43 bng 15 250 50 0 empty empty empty 17 7 0 10 #fcfcfc #000000 #000000;
#X obj 120 63 f;
#X obj 14 229 osc~;
#X obj 14 258 *~;
#X obj 14 287 outlet~;
#X obj 122 13 inlet;
#X obj 320 208 line~;
#X msg 322 167 \$1 1;
#X obj 399 131 del 1;
#X msg 396 167 0 100;
#X obj 20 187 line~;
#X msg 22 146 150;
#X msg 96 146 50 70;
#X connect 0 0 1 0;
#X connect 1 0 2 0;
#X connect 1 0 12 0;
#X connect 1 0 13 0;
#X connect 2 0 8 0;
#X connect 2 0 9 0;
#X connect 3 0 4 0;
#X connect 4 0 5 0;
#X connect 6 0 2 1;
#X connect 7 0 4 1;
#X connect 8 0 7 0;
#X connect 9 0 10 0;
#X connect 10 0 7 0;
#X connect 11 0 3 0;
#X connect 12 0 11 0;
#X connect 13 0 11 0;
#X restore 42 392 pd kick;
#N canvas 562 244 666 436 snare 0;
#X obj 193 10 inlet;
#X obj 258 10 inlet;
#X obj 24 49 noise~;
#X obj 23 83 lop~ 3000;
#X obj 23 117 hip~ 1000;
#X obj 76 154 osc~ 180;
#X obj 77 190 *~ 0.5;
#X obj 77 228 *~;
#X obj 191 60 f;
#X obj 191 163 *~;
#X obj 77 258 outlet~;
#X obj 320 208 line~;
#X msg 322 167 \$1 1;
#X obj 399 131 del 1;
#X msg 396 167 0 150;
#X connect 0 0 8 0;
#X connect 1 0 8 1;
#X connect 2 0 3 0;
#X connect 3 0 4 0;
#X connect 4 0 7 0;
#X connect 5 0 6 0;
#X connect 6 0 7 0;
#X connect 7 0 10 0;
#X connect 8 0 12 0;
#X connect 8 0 13 0;
#X connect 9 0 7 1;
#X connect 11 0 9 0;
#X connect 11 0 9 1;
#X connect 12 0 11 0;
#X connect 13 0 14 0;
#X connect 14 0 11 0;
#X restore 141 392 pd snare;
#N canvas 669 490 450 497 hihat 0;
#X obj 193 10 inlet;
#X obj 258 10 inlet;
#X obj 15 66 noise~;
#X obj 42 170 *~;
#X obj 191 60 f;
#X obj 42 200 outlet~;
#X obj 14 100 lop~ 20000;
#X obj 14 134 hip~ 10000;
#X obj 192 39 bng 15 250 50 0 empty empty empty 17 7 0 10 #fcfcfc #000000 #000000;
#X obj 284 94 t f b;
#X obj 317 134 random 10;
#X obj 317 163 / 20;
#X obj 317 192 + 0.7;
#X obj 247 201 *;
#X obj 80 364 line~;
#X obj 159 287 del 1;
#X msg 156 323 0 40;
#X msg 96 318 \$1;
#X connect 0 0 8 0;
#X connect 1 0 4 1;
#X connect 2 0 6 0;
#X connect 3 0 5 0;
#X connect 4 0 9 0;
#X connect 6 0 7 0;
#X connect 7 0 3 0;
#X connect 8 0 4 0;
#X connect 9 0 13 0;
#X connect 9 1 10 0;
#X connect 10 0 11 0;
#X connect 11 0 12 0;
#X connect 12 0 13 1;
#X connect 13 0 15 0;
#X connect 13 0 17 0;
#X connect 14 0 3 1;
#X connect 15 0 16 0;
#X connect 16 0 14 0;
#X connect 17 0 14 0;
#X restore 253 393 pd hihat;
#X floatatom 127 305 5 0 0 0 - - - 0;
#X floatatom 234 307 5 0 0 0 - - - 0;
#X floatatom 328 308 5 0 0 0 - - - 0;
#X obj 116 459 +~;
#N canvas 817 478 450 300 counter 0;
#X obj 23 17 inlet;
#X obj 22 49 tgl 15 0 empty empty empty 17 7 0 10 #fcfcfc #000000 #000000 0 1;
#X obj 22 69 t f b;
#X obj 22 109 metro 0.25 120 permin;
#X obj 22 184 f;
#X obj 22 213 % 16;
#X obj 22 242 outlet;
#X obj 61 184 + 1;
#X msg 49 142 0;
#X connect 0 0 1 0;
#X connect 1 0 2 0;
#X connect 2 0 3 0;
#X connect 2 1 8 0;
#X connect 3 0 4 0;
#X connect 4 0 5 0;
#X connect 4 0 7 0;
#X connect 5 0 6 0;
#X connect 7 0 4 1;
#X connect 8 0 4 1;
#X restore 39 41 pd counter;
#X obj 39 21 tgl 15 0 empty empty empty 17 7 0 10 #fcfcfc #000000 #000000 0 1;
#X obj 39 112 hradio 15 1 0 16 empty empty empty 0 -8 0 10 #fcfcfc #000000 #000000 0;
#X obj 39 -10 inlet;
#X obj 39 534 bng 15 250 50 0 empty empty empty 17 7 0 10 #fcfcfc #000000 #000000;
#X obj 189 222 loadbang;
#X msg 131 269 0.7;
#X msg 232 272 0.6;
#X msg 326 267 0.5;
#X obj 237 150 bng 15 250 50 0 empty empty empty 17 7 0 10 #fcfcfc #000000 #000000;
#X obj 259 174 random 10;
#X obj 117 495 outlet~;
#X connect 1 0 2 0;
#X connect 2 0 3 0;
#X connect 3 0 4 0;
#X connect 4 0 5 0;
#X connect 5 0 6 0;
#X connect 5 0 17 0;
#X connect 5 1 7 0;
#X connect 5 2 8 0;
#X connect 5 3 6 0;
#X connect 5 3 7 0;
#X connect 5 3 17 0;
#X connect 5 4 6 0;
#X connect 5 4 8 0;
#X connect 5 4 17 0;
#X connect 5 5 7 0;
#X connect 5 5 8 0;
#X connect 5 6 6 0;
#X connect 5 6 7 0;
#X connect 5 6 8 0;
#X connect 5 6 17 0;
#X connect 6 0 12 0;
#X connect 7 0 12 0;
#X connect 8 0 12 0;
#X connect 9 0 6 1;
#X connect 10 0 7 1;
#X connect 11 0 8 1;
#X connect 12 0 24 0;
#X connect 13 0 15 0;
#X connect 14 0 13 0;
#X connect 15 0 22 0;
#X connect 16 0 14 0;
#X connect 18 0 19 0;
#X connect 18 0 20 0;
#X connect 18 0 21 0;
#X connect 19 0 9 0;
#X connect 20 0 10 0;
#X connect 21 0 11 0;
#X connect 22 0 23 0;
#X connect 23 0 1 0;
#X restore 137 451 pd drum_machine;
#N canvas 110 533 1146 518 random_notes_euclidean 0;
#N canvas 870 87 992 859 euclidean_rhythms 0;
#X obj 93 248 + 0;
#X obj 93 279 *;
#X floatatom 230 327 5 0 0 1 Notes - - 0;
#X obj 93 309 % 16;
#X obj 244 511 bng 15 250 50 0 empty empty empty 17 7 0 10 #fcfcfc #000000 #000000;
#X obj 392 537 bng 15 250 50 0 empty empty empty 17 7 0 10 #fcfcfc #000000 #000000;
#X obj 93 197 t f f;
#X obj 93 521 f;
#X floatatom 93 556 5 0 0 0 - - - 0;
#X msg 409 144 16;
#X floatatom 409 175 5 0 0 1 Steps - - 0;
#X obj 96 12 inlet;
#X obj 230 15 inlet;
#X obj 93 596 outlet;
#X obj 285 260 loadbang;
#X msg 285 288 8;
#X obj 409 114 loadbang;
#N canvas 573 454 852 560 counter 0;
#X obj 23 17 inlet;
#X obj 22 49 tgl 15 0 empty empty empty 17 7 0 10 #fcfcfc #000000 #000000 0 1;
#X obj 22 69 t f b;
#X obj 22 109 metro 0.25 120 permin;
#X obj 22 184 f;
#X obj 22 213 % 16;
#X obj 22 242 outlet;
#X obj 61 184 + 1;
#X msg 49 142 0;
#X obj 102 43 r BPM;
#X connect 0 0 1 0;
#X connect 1 0 2 0;
#X connect 2 0 3 0;
#X connect 2 1 8 0;
#X connect 3 0 4 0;
#X connect 4 0 5 0;
#X connect 4 0 7 0;
#X connect 5 0 6 0;
#X connect 7 0 4 1;
#X connect 8 0 4 1;
#X restore 95 70 pd counter;
#X obj 95 50 tgl 15 0 empty empty empty 17 7 0 10 #fcfcfc #000000 #000000 0 1;
#X obj 95 141 hradio 15 1 0 16 empty empty empty 0 -8 0 10 #fcfcfc #000000 #000000 0;
#X obj 93 342 -;
#X floatatom 92 369 5 0 0 0 - - - 0;
#X obj 93 460 sel 1 2 3 4 5 6 7 8 9 10 11 12 13 14 15 16;
#X floatatom 549 476 4 0 0 0 - - - 0;
#X connect 0 0 1 0;
#X connect 1 0 3 0;
#X connect 2 0 1 1;
#X connect 2 0 20 1;
#X connect 3 0 20 0;
#X connect 5 0 7 0;
#X connect 6 0 0 0;
#X connect 6 1 7 1;
#X connect 7 0 8 0;
#X connect 8 0 13 0;
#X connect 9 0 10 0;
#X connect 11 0 18 0;
#X connect 12 0 2 0;
#X connect 14 0 15 0;
#X connect 15 0 2 0;
#X connect 16 0 9 0;
#X connect 17 0 19 0;
#X connect 18 0 17 0;
#X connect 19 0 6 0;
#X connect 20 0 21 0;
#X connect 21 0 22 0;
#X connect 22 0 4 0;
#X connect 22 1 4 0;
#X connect 22 2 4 0;
#X connect 22 3 4 0;
#X connect 22 4 4 0;
#X connect 22 5 4 0;
#X connect 22 6 4 0;
#X connect 22 7 4 0;
#X connect 22 8 4 0;
#X connect 22 9 4 0;
#X connect 22 10 4 0;
#X connect 22 11 4 0;
#X connect 22 12 4 0;
#X connect 22 14 4 0;
#X connect 22 15 4 0;
#X connect 22 16 5 0;
#X connect 22 16 23 0;
#X restore 16 103 pd euclidean_rhythms;
#X obj 16 66 tgl 15 0 empty empty empty 17 7 0 10 #fcfcfc #000000 #000000 0 1;
#X floatatom 212 71 5 0 0 0 - - - 0;
#X floatatom 19 155 5 0 0 0 - - - 0;
#X obj 19 225 bng 15 250 50 0 empty empty empty 17 7 0 10 #fcfcfc #000000 #000000;
#X obj 18 188 sel 0;
#X obj 212 9 random 16;
#X obj 211 42 + 1;
#X obj 101 153 t b f;
#X floatatom 149 223 5 0 0 0 - - - 0;
#N canvas 521 366 980 421 random_note 0;
#X msg 45 103 60;
#X floatatom 45 159 5 0 0 0 - - - 0;
#X obj 45 308 mtof;
#X obj 45 252 +;
#X floatatom 442 110 5 0 0 0 - - - 0;
#X obj 45 67 bng 15 250 50 0 empty empty empty 17 7 0 10 #fcfcfc #000000 #000000;
#X obj 442 81 random 7;
#X obj 442 137 sel 0 1 2 3 4 5 6;
#X msg 442 188 0;
#X msg 489 189 2;
#X msg 535 189 4;
#X msg 582 189 5;
#X msg 629 189 7;
#X msg 675 189 9;
#X msg 722 189 11;
#X floatatom 442 248 5 0 0 0 - - - 0;
#X floatatom 45 339 5 0 0 0 - - - 0;
#X obj 45 26 inlet;
#X obj 45 371 outlet;
#X floatatom 126 139 5 0 0 0 - - - 0;
#X obj 124 101 random 3;
#X obj 124 185 sel 0 1;
#X obj 47 210 +;
#X msg 123 217 -12;
#X msg 170 218 12;
#X floatatom 101 281 5 0 0 0 - - - 0;
#X connect 0 0 1 0;
#X connect 1 0 22 0;
#X connect 2 0 16 0;
#X connect 3 0 2 0;
#X connect 3 0 25 0;
#X connect 4 0 7 0;
#X connect 5 0 6 0;
#X connect 5 0 0 0;
#X connect 5 0 20 0;
#X connect 6 0 4 0;
#X connect 7 0 8 0;
#X connect 7 1 9 0;
#X connect 7 2 10 0;
#X connect 7 3 11 0;
#X connect 7 4 12 0;
#X connect 7 5 13 0;
#X connect 7 6 14 0;
#X connect 8 0 15 0;
#X connect 9 0 15 0;
#X connect 10 0 15 0;
#X connect 11 0 15 0;
#X connect 12 0 15 0;
#X connect 13 0 15 0;
#X connect 14 0 15 0;
#X connect 15 0 3 1;
#X connect 16 0 18 0;
#X connect 17 0 5 0;
#X connect 19 0 21 0;
#X connect 20 0 19 0;
#X connect 21 0 23 0;
#X connect 21 1 24 0;
#X connect 22 0 3 0;
#X connect 23 0 22 1;
#X connect 24 0 22 1;
#X restore 148 189 pd random_note;
#X obj 15 11 inlet;
#X obj 149 261 outlet;
#X connect 0 0 3 0;
#X connect 0 0 8 0;
#X connect 1 0 0 0;
#X connect 2 0 0 1;
#X connect 3 0 5 0;
#X connect 4 0 6 0;
#X connect 5 0 4 0;
#X connect 6 0 7 0;
#X connect 7 0 2 0;
#X connect 8 1 10 0;
#X connect 9 0 12 0;
#X connect 10 0 9 0;
#X connect 11 0 1 0;
#X restore 1307 415 pd random_notes_euclidean;
#N canvas 647 185 881 988 clave 0;
#X obj 65 19 inlet;
#X floatatom 66 163 5 0 0 0 - - - 0;
#X obj 66 191 osc~;
#X obj 66 220 *~;
#X obj 67 298 outlet~;
#X obj 65 53 ftom;
#X obj 66 89 + 12;
#X obj 70 127 mtof;
#X msg 144 169 0.7 5;
#X msg 218 169 0 200;
#X obj 221 133 del 10;
#X obj 148 136 bng 24 250 50 0 empty empty empty 0 -12 0 16 #fcfcfc #000000 #000000;
#X obj 144 202 line~;
#X connect 0 0 5 0;
#X connect 1 0 2 0;
#X connect 1 0 11 0;
#X connect 2 0 3 0;
#X connect 3 0 4 0;
#X connect 5 0 6 0;
#X connect 6 0 7 0;
#X connect 7 0 1 0;
#X connect 8 0 12 0;
#X connect 9 0 12 0;
#X connect 10 0 9 0;
#X connect 11 0 8 0;
#X connect 11 0 10 0;
#X connect 12 0 3 1;
#X restore 1303 452 pd clave;
#X obj 232 663 vu 15 120 vu1 empty -1 -8 0 10 #404040 #000000 1 0;
#X obj 281 661 vsl 15 120 0 1 0 0 empty empty empty 0 -9 0 10 #fcfcfc #000000 #000000 0 1;
#X obj 309 669 *~;
#X obj 588 353 dac~;
#X obj 506 202 *~;
#X obj 672 207 *~;
#X obj 445 255 vu 15 120 vuM empty -1 -8 0 10 #404040 #000000 1 0;
#X obj 422 255 vsl 15 120 0 1 0 0 empty empty empty 0 -9 0 10 #fcfcfc #000000 #000000 0 1;
#X obj 232 616 line~;
#X floatatom 363 566 5 0 0 0 - - - 24;
#X obj 232 536 r mute1;
#X msg 232 589 \$1 500;
#X obj 318 536 loadbang;
#X obj 232 562 * 1;
#X msg 318 568 1;
#N canvas -165 581 1920 997 effects 0;
#X obj 53 41 inlet~;
#X obj 608 37 inlet~;
#X obj 54 273 outlet~;
#X obj 534 280 outlet~;
#X obj 185 255 lop~ 100;
#X obj 388 250 lop~ 100;
#X obj 226 59 sel 1;
#X obj 180 216 *~;
#X msg 265 94 0;
#X msg 209 95 1;
#X obj 466 207 *~;
#X obj 68 163 *~;
#X msg 154 93 0;
#X msg 319 92 1;
#X obj 630 187 *~;
#X obj 736 162 tgl 50 0 empty empty empty 17 7 0 10 #fcfcfc #000000 #000000 0 1;
#X obj 745 59 loadbang;
#X obj 958 190 loadbang;
#X msg 958 219 500;
#X connect 0 0 11 0;
#X connect 0 0 7 0;
#X connect 1 0 14 0;
#X connect 1 0 10 0;
#X connect 4 0 2 0;
#X connect 5 0 3 0;
#X connect 6 0 9 0;
#X connect 6 0 12 0;
#X connect 6 1 8 0;
#X connect 6 1 13 0;
#X connect 7 0 4 0;
#X connect 8 0 7 1;
#X connect 8 0 10 1;
#X connect 9 0 7 1;
#X connect 9 0 10 1;
#X connect 10 0 5 0;
#X connect 11 0 2 0;
#X connect 12 0 11 1;
#X connect 12 0 14 1;
#X connect 13 0 11 1;
#X connect 13 0 14 1;
#X connect 14 0 3 0;
#X connect 15 0 6 0;
#X connect 16 0 15 0;
#X connect 17 0 18 0;
#X connect 18 0 4 1;
#X connect 18 0 5 0;
#X restore 562 292 pd effects;
#X floatatom 408 213 5 0 0 0 - - - 24;
#X obj 363 183 loadbang;
#X obj 1276 661 vu 15 120 vu4 empty -1 -8 0 10 #404040 #000000 1 0;
#X obj 1325 659 vsl 15 120 0 1 0 0 empty empty empty 0 -9 0 10 #fcfcfc #000000 #000000 0 1;
#X obj 1353 667 *~;
#X obj 1276 614 line~;
#X floatatom 1407 564 5 0 0 0 - - - 24;
#X msg 1276 587 \$1 500;
#X obj 1362 534 loadbang;
#X obj 1276 560 * 1;
#X text 304 496 Drums;
#X obj 1276 534 r mute4;
#X text 1348 491 Arp, f 7;
#X msg 363 215 0.45;
#X msg 1362 566 0.2;
#X connect 0 0 5 0;
#X connect 1 0 2 0;
#X connect 2 0 23 0;
#X connect 4 0 12 0;
#X connect 4 0 14 0;
#X connect 5 0 7 0;
#X connect 5 0 8 0;
#X connect 7 0 18 0;
#X connect 8 0 18 1;
#X connect 10 0 7 1;
#X connect 10 0 8 1;
#X connect 10 0 19 0;
#X connect 11 0 5 1;
#X connect 12 0 16 1;
#X connect 12 0 5 1;
#X connect 13 0 16 0;
#X connect 14 0 11 0;
#X connect 15 0 17 0;
#X connect 16 0 14 0;
#X connect 17 0 4 0;
#X connect 18 0 6 0;
#X connect 18 1 6 1;
#X connect 20 0 32 0;
#X connect 20 0 0 0;
#X connect 20 0 1 0;
#X connect 22 0 25 0;
#X connect 22 0 26 0;
#X connect 23 0 7 0;
#X connect 23 0 8 0;
#X connect 24 0 23 1;
#X connect 25 0 28 1;
#X connect 25 0 23 1;
#X connect 26 0 24 0;
#X connect 27 0 33 0;
#X connect 28 0 26 0;
#X connect 30 0 28 0;
#X connect 32 0 10 0;
#X connect 33 0 22 0;
#X coords 0 0 1 1 85 60 0;
