#N canvas 232 87 2560 1357 16;
#X obj 837 186 loadbang;
#X floatatom 1173 628 5 0 0 0 - - - 0;
#X floatatom 1109 645 5 0 0 0 - - - 0;
#X obj 1109 715 bng 15 250 50 0 empty empty empty 17 7 0 10 #fcfcfc
#000000 #000000;
#X obj 1108 678 sel 0;
#X obj 1173 566 random 16;
#X obj 1172 599 + 1;
#X obj 1180 294 t b f;
#X obj 1091 331 + 0;
#X obj 1091 362 *;
#X floatatom 1180 419 5 0 0 1 Notes - - 0;
#X obj 1091 392 % 16;
#X obj 1259 535 bng 15 250 50 0 empty empty empty 17 7 0 10 #fcfcfc
#000000 #000000;
#X obj 1091 280 t f f;
#X obj 1092 548 f;
#X floatatom 1092 583 5 0 0 0 - - - 0;
#X obj 1179 358 loadbang;
#X msg 1179 386 8;
#X obj 1091 425 -;
#X floatatom 1090 452 5 0 0 0 - - - 0;
#X obj 1092 487 sel 1 2 3 4 5 6 7 8 9 10 11 12 13 14 15 16;
#X floatatom 1503 522 4 0 0 0 - - - 0;
#X floatatom 473 695 5 0 0 0 - - - 0;
#X obj 473 723 osc~;
#X obj 473 752 *~;
#X obj 472 585 ftom;
#X obj 473 621 + 12;
#X obj 477 659 mtof;
#X msg 625 701 0 200;
#X obj 628 665 del 10;
#X obj 555 668 bng 24 250 50 0 empty empty empty 0 -12 0 16 #fcfcfc
#000000 #000000;
#X obj 551 734 line~;
#X msg 1270 143 60;
#X floatatom 1270 199 5 0 0 0 - - - 0;
#X obj 1270 348 mtof;
#X obj 1270 292 +;
#X floatatom 1451 150 5 0 0 0 - - - 0;
#X obj 1270 107 bng 15 250 50 0 empty empty empty 17 7 0 10 #fcfcfc
#000000 #000000;
#X obj 1451 121 random 7;
#X obj 1451 177 sel 0 1 2 3 4 5 6;
#X msg 1451 228 0;
#X msg 1498 229 2;
#X msg 1544 229 4;
#X msg 1591 229 5;
#X msg 1638 229 7;
#X msg 1690 231 9;
#X msg 1737 231 11;
#X floatatom 1451 288 5 0 0 0 - - - 0;
#X floatatom 1270 379 5 0 0 0 - - - 0;
#X floatatom 1351 179 5 0 0 0 - - - 0;
#X obj 1349 141 random 3;
#X obj 1349 225 sel 0 1;
#X obj 1272 250 +;
#X msg 1348 257 -12;
#X msg 1395 258 12;
#X obj 837 210 metro 200;
#X obj 837 239 f;
#X obj 836 269 % 16;
#X obj 876 239 + 1;
#X obj 73 718 s haha;
#X obj 397 257 bng 15 250 50 0 empty empty empty 17 7 0 10 #fcfcfc
#000000 #000000;
#X obj 397 377 osc~;
#X obj 405 424 *~;
#X obj 423 521 dac~;
#X obj 573 282 bng 24 250 50 0 empty empty empty 0 -12 0 16 #fcfcfc
#000000 #000000;
#X obj 571 391 line~;
#X obj 72 345 s drum;
#X floatatom 483 159 5 0 0 0 - - - 0;
#X obj 482 182 bng 15 250 50 0 empty empty empty 17 7 0 10 #fcfcfc
#000000 #000000;
#X obj 467 836 dac~;
#X obj 474 797 *~ 1;
#X floatatom 938 140 5 0 0 0 - - - 0;
#X obj 405 278 bng 24 250 50 0 empty empty empty 0 -12 0 16 #fcfcfc
#000000 #000000;
#X obj 405 342 line~;
#X obj 561 456 tgl 15 0 empty empty empty 17 7 0 10 #fcfcfc #000000
#000000 0 1;
#X obj 578 785 tgl 15 0 empty empty empty 17 7 0 10 #fcfcfc #000000
#000000 0 1;
#X obj 71 381 r drum_switch;
#X obj 73 755 r melody_switch;
#X obj 75 96 r speed;
#X text 71 140 range: 130~360;
#X text 134 164 fast~slow;
#X obj 83 515 r filter;
#X obj 282 533 lop~ 2000;
#X obj 277 626 lop~ 2000;
#X floatatom 85 551 5 0 0 0 - - - 0;
#X text 75 599 range: 100~2000;
#X msg 563 351 0.3 0.5;
#X obj 648 322 del 1;
#X obj 481 200 random 5;
#X obj 735 361 noise~;
#X obj 734 395 lop~ 3000;
#X obj 734 429 hip~ 1000;
#X obj 802 516 *~;
#X obj 892 339 bng 24 250 50 0 empty empty empty 0 -12 0 16 #fcfcfc
#000000 #000000;
#X obj 890 448 line~;
#X obj 967 379 del 1;
#X msg 882 408 0.1 0.5;
#X obj 606 201 random 5;
#X obj 610 244 sel 0;
#X msg 645 358 0 50;
#X msg 964 415 0 100;
#X obj 482 234 sel 0;
#X obj 840 619 dac~;
#X obj 844 574 *~ 1;
#X obj 630 556 lop~ 2000;
#X obj 427 476 *~ 1;
#X msg 405 309 150;
#X msg 481 315 70 50;
#X msg 552 701 0.15 5;
#X obj 920 501 osc~ 180;
#X obj 921 537 *~ 0.5;
#X obj 557 838 noise~;
#X obj 584 942 *~;
#X obj 733 832 f;
#X obj 556 872 lop~ 20000;
#X obj 556 906 hip~ 10000;
#X obj 734 811 bng 15 250 50 0 empty empty empty 17 7 0 10 #fcfcfc
#000000 #000000;
#X obj 826 866 t f b;
#X obj 859 906 random 10;
#X obj 859 935 / 20;
#X obj 859 964 + 0.7;
#X obj 789 973 *;
#X obj 681 954 line~;
#X obj 727 884 del 1;
#X msg 724 920 0 40;
#X msg 673 914 \$1;
#X floatatom 821 800 5 0 0 0 - - - 0;
#X msg 821 771 0.1;
#X obj 820 731 loadbang;
#X obj 572 1052 dac~;
#X obj 579 1013 *~ 1;
#X obj 453 968 lop~ 2000;
#X obj 724 241 sel 0;
#X obj 720 198 random 3;
#X obj 66 844 s snare;
#X obj 67 903 s hihat;
#X connect 0 0 55 0;
#X connect 1 0 10 0;
#X connect 2 0 4 0;
#X connect 3 0 5 0;
#X connect 4 0 3 0;
#X connect 5 0 6 0;
#X connect 6 0 1 0;
#X connect 7 1 37 0;
#X connect 8 0 9 0;
#X connect 9 0 11 0;
#X connect 10 0 9 1;
#X connect 10 0 18 1;
#X connect 11 0 18 0;
#X connect 12 0 14 0;
#X connect 13 0 8 0;
#X connect 13 1 14 1;
#X connect 13 1 67 0;
#X connect 14 0 15 0;
#X connect 15 0 4 0;
#X connect 15 0 7 0;
#X connect 16 0 17 0;
#X connect 17 0 10 0;
#X connect 18 0 19 0;
#X connect 19 0 20 0;
#X connect 20 16 12 0;
#X connect 20 16 21 0;
#X connect 22 0 23 0;
#X connect 22 0 30 0;
#X connect 22 0 59 0;
#X connect 23 0 24 0;
#X connect 24 0 83 0;
#X connect 25 0 26 0;
#X connect 26 0 27 0;
#X connect 27 0 22 0;
#X connect 28 0 31 0;
#X connect 29 0 28 0;
#X connect 30 0 108 0;
#X connect 30 0 29 0;
#X connect 31 0 24 1;
#X connect 32 0 33 0;
#X connect 33 0 52 0;
#X connect 34 0 48 0;
#X connect 35 0 34 0;
#X connect 36 0 39 0;
#X connect 37 0 38 0;
#X connect 37 0 32 0;
#X connect 37 0 50 0;
#X connect 38 0 36 0;
#X connect 39 0 40 0;
#X connect 39 1 41 0;
#X connect 39 2 42 0;
#X connect 39 3 43 0;
#X connect 39 4 44 0;
#X connect 39 5 45 0;
#X connect 39 6 46 0;
#X connect 40 0 47 0;
#X connect 41 0 47 0;
#X connect 42 0 47 0;
#X connect 43 0 47 0;
#X connect 44 0 47 0;
#X connect 45 0 47 0;
#X connect 46 0 47 0;
#X connect 47 0 35 1;
#X connect 48 0 25 0;
#X connect 49 0 51 0;
#X connect 50 0 49 0;
#X connect 51 0 53 0;
#X connect 51 1 54 0;
#X connect 52 0 35 0;
#X connect 53 0 52 1;
#X connect 54 0 52 1;
#X connect 55 0 56 0;
#X connect 56 0 57 0;
#X connect 56 0 58 0;
#X connect 57 0 13 0;
#X connect 58 0 56 1;
#X connect 60 0 64 0;
#X connect 60 0 66 0;
#X connect 60 0 72 0;
#X connect 61 0 62 0;
#X connect 62 0 82 0;
#X connect 64 0 86 0;
#X connect 64 0 87 0;
#X connect 65 0 62 1;
#X connect 67 0 68 0;
#X connect 68 0 88 0;
#X connect 68 0 97 0;
#X connect 68 0 133 0;
#X connect 70 0 69 0;
#X connect 70 0 69 1;
#X connect 71 0 55 1;
#X connect 72 0 106 0;
#X connect 72 0 107 0;
#X connect 73 0 61 0;
#X connect 74 0 103 1;
#X connect 74 0 105 1;
#X connect 74 0 130 1;
#X connect 75 0 70 1;
#X connect 76 0 74 0;
#X connect 77 0 75 0;
#X connect 78 0 71 0;
#X connect 81 0 84 0;
#X connect 82 0 105 0;
#X connect 83 0 70 0;
#X connect 84 0 82 1;
#X connect 84 0 104 1;
#X connect 84 0 83 1;
#X connect 84 0 131 1;
#X connect 86 0 65 0;
#X connect 87 0 99 0;
#X connect 88 0 101 0;
#X connect 89 0 90 0;
#X connect 90 0 91 0;
#X connect 91 0 92 0;
#X connect 92 0 104 0;
#X connect 93 0 96 0;
#X connect 93 0 95 0;
#X connect 93 0 134 0;
#X connect 94 0 92 1;
#X connect 95 0 100 0;
#X connect 96 0 94 0;
#X connect 97 0 98 0;
#X connect 98 0 93 0;
#X connect 99 0 65 0;
#X connect 100 0 94 0;
#X connect 101 0 60 0;
#X connect 103 0 102 0;
#X connect 103 0 102 1;
#X connect 104 0 103 0;
#X connect 105 0 63 0;
#X connect 105 0 63 1;
#X connect 106 0 73 0;
#X connect 107 0 73 0;
#X connect 108 0 31 0;
#X connect 109 0 110 0;
#X connect 110 0 92 0;
#X connect 111 0 114 0;
#X connect 112 0 131 0;
#X connect 113 0 117 0;
#X connect 114 0 115 0;
#X connect 115 0 112 0;
#X connect 116 0 113 0;
#X connect 116 0 135 0;
#X connect 117 0 121 0;
#X connect 117 1 118 0;
#X connect 118 0 119 0;
#X connect 119 0 120 0;
#X connect 120 0 121 1;
#X connect 121 0 125 0;
#X connect 121 0 123 0;
#X connect 122 0 112 1;
#X connect 123 0 124 0;
#X connect 124 0 122 0;
#X connect 125 0 122 0;
#X connect 126 0 113 1;
#X connect 127 0 126 0;
#X connect 128 0 127 0;
#X connect 130 0 129 0;
#X connect 130 0 129 1;
#X connect 131 0 130 0;
#X connect 132 0 116 0;
#X connect 133 0 132 0;
#X coords 0 0 1 1 85 60 0;
