#N canvas 588 282 1919 950 16;
#X obj 837 188 loadbang;
#X floatatom 797 794 5 0 0 0 - - - 0;
#X floatatom 948 727 5 0 0 0 - - - 0;
#X obj 948 797 bng 15 250 50 0 empty empty empty 17 7 0 10 #fcfcfc
#000000 #000000;
#X obj 947 760 sel 0;
#X obj 797 732 random 16;
#X obj 796 765 + 1;
#X obj 750 411 t b f;
#X obj 931 357 + 0;
#X obj 931 388 *;
#X floatatom 1068 436 5 0 0 1 Notes - - 0;
#X obj 931 418 % 16;
#X obj 1082 620 bng 15 250 50 0 empty empty empty 17 7 0 10 #fcfcfc
#000000 #000000;
#X obj 1230 646 bng 15 250 50 0 empty empty empty 17 7 0 10 #fcfcfc
#000000 #000000;
#X obj 931 306 t f f;
#X obj 931 630 f;
#X floatatom 931 665 5 0 0 0 - - - 0;
#X obj 1123 369 loadbang;
#X msg 1123 397 8;
#X obj 931 451 -;
#X floatatom 930 478 5 0 0 0 - - - 0;
#X obj 931 569 sel 1 2 3 4 5 6 7 8 9 10 11 12 13 14 15 16;
#X floatatom 1349 615 4 0 0 0 - - - 0;
#X floatatom 473 695 5 0 0 0 - - - 0;
#X obj 473 723 osc~;
#X obj 473 752 *~;
#X obj 472 585 ftom;
#X obj 473 621 + 12;
#X obj 477 659 mtof;
#X msg 625 701 0 200;
#X obj 628 665 del 10;
#X obj 555 668 bng 24 250 50 0 empty empty empty 0 -12 0 16 #fcfcfc
#000000 #000000;
#X obj 551 734 line~;
#X msg 1270 143 60;
#X floatatom 1270 199 5 0 0 0 - - - 0;
#X obj 1270 348 mtof;
#X obj 1270 292 +;
#X floatatom 1506 146 5 0 0 0 - - - 0;
#X obj 1270 107 bng 15 250 50 0 empty empty empty 17 7 0 10 #fcfcfc
#000000 #000000;
#X obj 1506 117 random 7;
#X obj 1506 173 sel 0 1 2 3 4 5 6;
#X msg 1506 224 0;
#X msg 1553 225 2;
#X msg 1599 225 4;
#X msg 1646 225 5;
#X msg 1693 225 7;
#X msg 1745 227 9;
#X msg 1792 227 11;
#X floatatom 1506 284 5 0 0 0 - - - 0;
#X floatatom 1270 379 5 0 0 0 - - - 0;
#X floatatom 1351 179 5 0 0 0 - - - 0;
#X obj 1349 141 random 3;
#X obj 1349 225 sel 0 1;
#X obj 1272 250 +;
#X msg 1348 257 -12;
#X msg 1395 258 12;
#X obj 837 212 metro 200;
#X obj 837 239 f;
#X obj 836 269 % 16;
#X obj 876 239 + 1;
#X obj 73 718 s haha;
#X obj 397 257 bng 15 250 50 0 empty empty empty 17 7 0 10 #fcfcfc
#000000 #000000;
#X obj 397 377 osc~;
#X obj 405 424 *~;
#X obj 423 503 dac~;
#X obj 573 282 bng 24 250 50 0 empty empty empty 0 -12 0 16 #fcfcfc
#000000 #000000;
#X obj 571 391 line~;
#X msg 645 358 0 100;
#X obj 648 322 del 1.5;
#X obj 72 345 s drum;
#X floatatom 483 159 5 0 0 0 - - - 0;
#X obj 481 200 random 4;
#X obj 478 247 sel 0;
#X obj 482 182 bng 15 250 50 0 empty empty empty 17 7 0 10 #fcfcfc
#000000 #000000;
#X msg 551 701 0.5 5;
#X msg 571 358 0.4 1;
#X obj 430 464 *~ 1;
#X obj 467 836 dac~;
#X obj 474 797 *~ 1;
#X floatatom 943 122 5 0 0 0 - - - 0;
#X obj 405 278 bng 24 250 50 0 empty empty empty 0 -12 0 16 #fcfcfc
#000000 #000000;
#X obj 405 342 line~;
#X msg 405 309 150;
#X msg 447 311 50 70;
#X obj 561 456 tgl 15 0 empty empty empty 17 7 0 10 #fcfcfc #000000
#000000 0 1;
#X obj 578 785 tgl 15 0 empty empty empty 17 7 0 10 #fcfcfc #000000
#000000 0 1;
#X obj 71 381 r drum_switch;
#X obj 73 755 r melody_switch;
#X obj 75 96 r speed;
#X text 71 140 range: 130~360;
#X text 134 164 fast~slow;
#X connect 0 0 56 0;
#X connect 1 0 10 0;
#X connect 2 0 4 0;
#X connect 3 0 5 0;
#X connect 4 0 3 0;
#X connect 5 0 6 0;
#X connect 6 0 1 0;
#X connect 7 1 38 0;
#X connect 8 0 9 0;
#X connect 9 0 11 0;
#X connect 10 0 9 1;
#X connect 10 0 19 1;
#X connect 11 0 19 0;
#X connect 13 0 15 0;
#X connect 14 0 8 0;
#X connect 14 1 15 1;
#X connect 14 1 70 0;
#X connect 15 0 16 0;
#X connect 16 0 4 0;
#X connect 16 0 7 0;
#X connect 17 0 18 0;
#X connect 18 0 10 0;
#X connect 19 0 20 0;
#X connect 20 0 21 0;
#X connect 21 0 12 0;
#X connect 21 1 12 0;
#X connect 21 2 12 0;
#X connect 21 3 12 0;
#X connect 21 4 12 0;
#X connect 21 5 12 0;
#X connect 21 6 12 0;
#X connect 21 7 12 0;
#X connect 21 8 12 0;
#X connect 21 9 12 0;
#X connect 21 10 12 0;
#X connect 21 11 12 0;
#X connect 21 12 12 0;
#X connect 21 14 12 0;
#X connect 21 15 12 0;
#X connect 21 16 13 0;
#X connect 21 16 22 0;
#X connect 23 0 24 0;
#X connect 23 0 31 0;
#X connect 23 0 60 0;
#X connect 24 0 25 0;
#X connect 25 0 78 0;
#X connect 26 0 27 0;
#X connect 27 0 28 0;
#X connect 28 0 23 0;
#X connect 29 0 32 0;
#X connect 30 0 29 0;
#X connect 31 0 74 0;
#X connect 31 0 30 0;
#X connect 32 0 25 1;
#X connect 33 0 34 0;
#X connect 34 0 53 0;
#X connect 35 0 49 0;
#X connect 36 0 35 0;
#X connect 37 0 40 0;
#X connect 38 0 39 0;
#X connect 38 0 33 0;
#X connect 38 0 51 0;
#X connect 39 0 37 0;
#X connect 40 0 41 0;
#X connect 40 1 42 0;
#X connect 40 2 43 0;
#X connect 40 3 44 0;
#X connect 40 4 45 0;
#X connect 40 5 46 0;
#X connect 40 6 47 0;
#X connect 41 0 48 0;
#X connect 42 0 48 0;
#X connect 43 0 48 0;
#X connect 44 0 48 0;
#X connect 45 0 48 0;
#X connect 46 0 48 0;
#X connect 47 0 48 0;
#X connect 48 0 36 1;
#X connect 49 0 26 0;
#X connect 50 0 52 0;
#X connect 51 0 50 0;
#X connect 52 0 54 0;
#X connect 52 1 55 0;
#X connect 53 0 36 0;
#X connect 54 0 53 1;
#X connect 55 0 53 1;
#X connect 56 0 57 0;
#X connect 57 0 58 0;
#X connect 57 0 59 0;
#X connect 58 0 14 0;
#X connect 59 0 57 1;
#X connect 61 0 65 0;
#X connect 61 0 69 0;
#X connect 61 0 80 0;
#X connect 62 0 63 0;
#X connect 63 0 76 0;
#X connect 65 0 75 0;
#X connect 65 0 68 0;
#X connect 66 0 63 1;
#X connect 67 0 66 0;
#X connect 68 0 67 0;
#X connect 70 0 73 0;
#X connect 71 0 72 0;
#X connect 72 0 61 0;
#X connect 73 0 71 0;
#X connect 74 0 32 0;
#X connect 75 0 66 0;
#X connect 76 0 64 0;
#X connect 76 0 64 1;
#X connect 78 0 77 0;
#X connect 78 0 77 1;
#X connect 79 0 56 1;
#X connect 80 0 82 0;
#X connect 80 0 83 0;
#X connect 81 0 62 0;
#X connect 82 0 81 0;
#X connect 83 0 81 0;
#X connect 84 0 76 1;
#X connect 85 0 78 1;
#X connect 86 0 84 0;
#X connect 87 0 85 0;
#X connect 88 0 79 0;
#X coords 0 0 1 1 85 60 0;
